<?xml version="1.0" encoding="UTF-8" standalone="no"?>
<!DOCTYPE svg PUBLIC "-//W3C//DTD SVG 1.1//EN" "http://www.w3.org/Graphics/SVG/1.1/DTD/svg11.dtd">
<svg width="100%" height="100%" viewBox="0 0 1352 1761" version="1.1" xmlns="http://www.w3.org/2000/svg" xmlns:xlink="http://www.w3.org/1999/xlink" xml:space="preserve" xmlns:serif="http://www.serif.com/" style="fill-rule:evenodd;clip-rule:evenodd;stroke-linecap:round;stroke-linejoin:round;stroke-miterlimit:1.5;">
    <g id="Layer22">
    </g>
    <g id="sewing" transform="matrix(1,0,0,1,0,-1198)">
        <g transform="matrix(1,0,0,1,5.20773,1.72944)">
            <path d="M394.823,1487.61L418.798,1513.15L453.576,1814.69L453.949,1827.62L258.242,1823.64L253.303,1489.73L394.823,1487.61Z" style="fill:rgb(217,183,255);stroke:black;stroke-width:6.96px;"/>
        </g>
        <path d="M398.04,1681.52L419.156,1629.01L437.557,1829.35L258.511,1825.32L261.133,1681.34L398.04,1681.52Z" style="fill:rgb(169,166,255);stroke:black;stroke-width:6.96px;"/>
        <path d="M222.131,1810.76L282.166,1810.59L285.287,1897.26L209.478,1898.19L209.478,1822.13C209.854,1815.34 215.452,1810.33 222.131,1810.76Z" style="fill:rgb(169,166,255);stroke:black;stroke-width:6.96px;"/>
        <g transform="matrix(1,0,0,0.410614,0,1156.22)">
            <path d="M206.003,1810.59L470.977,1810.98L471.237,1898.38L206.003,1897.84L206.003,1810.59Z" style="fill:rgb(169,166,255);stroke:black;stroke-width:9.1px;"/>
        </g>
        <path d="M250.364,1678.37L227.399,1663.76C227.399,1663.76 219.268,1659.69 215.55,1665.08C211.833,1670.47 219.287,1674.61 221.576,1675.79C223.864,1676.97 253.303,1693.04 253.303,1693.04L250.364,1678.37Z" style="fill:rgb(234,234,255);stroke:black;stroke-width:6.96px;"/>
        <path d="M255.405,1489.87L384.342,1487C399.044,1486.59 406.812,1493.21 407.688,1506.52L416.144,1615.51L374.41,1710.32L263.478,1710.11C255.12,1710.41 249.173,1706.2 246.553,1695.77L233.528,1619.83L233.161,1506.86C233.716,1494.98 241.154,1489.33 255.405,1489.87Z" style="fill:rgb(169,166,255);stroke:black;stroke-width:6.96px;"/>
        <path d="M417.833,1528.91L438.142,1528.91C446.46,1548.05 448.404,1570.67 445.357,1596L425.394,1595.97L417.833,1528.91Z" style="fill:rgb(207,205,255);stroke:black;stroke-width:6.96px;"/>
        <g transform="matrix(1,0,0,1,14.4409,124.948)">
            <path d="M417.833,1528.91L438.142,1528.91C446.46,1548.05 448.404,1570.67 445.357,1596L425.394,1595.97L417.833,1528.91Z" style="fill:rgb(207,205,255);stroke:black;stroke-width:6.96px;"/>
        </g>
        <g transform="matrix(0.998498,-0.054786,0.065826,1.19971,-93.1669,-268.636)">
            <path d="M306.872,1430.82L307.337,1416.43C307.337,1416.43 312.59,1411.32 318.568,1416.43L317.662,1430.82L306.872,1430.82Z" style="fill:rgb(169,166,255);stroke:black;stroke-width:6.29px;"/>
        </g>
        <g transform="matrix(0.998498,-0.054786,0.081735,1.489662,-60.974343,-627.811788)">
            <path d="M306.872,1430.82L307.337,1416.43C307.337,1416.43 312.59,1411.32 318.568,1416.43L317.662,1430.82L306.872,1430.82Z" style="fill:rgb(169,166,255);stroke:black;stroke-width:5.22px;"/>
        </g>
        <path d="M279.694,1432.4C279.704,1427.88 291.955,1421.23 314.091,1422.2C336.226,1423.17 346.356,1428.91 346.309,1433.59C346.165,1436.88 336.868,1441.94 310.69,1440.49C284.512,1439.03 279.684,1436.56 279.694,1432.4Z" style="fill:rgb(234,234,255);stroke:black;stroke-width:6.96px;"/>
        <path d="M317.931,1449.69L373.256,1479.08" style="fill:none;stroke:black;stroke-width:6.96px;"/>
        <path d="M290.485,1434.02C290.485,1434.02 313.345,1426.38 337.842,1435.45L337.842,1487.84L291.529,1488.58L290.485,1434.02Z" style="fill:rgb(217,183,255);stroke:black;stroke-width:6.96px;"/>
        <path d="M292.382,1443.08C292.382,1443.08 321.635,1436.65 336.133,1445.14M292.382,1471.47C292.382,1471.47 321.635,1465.05 336.133,1473.54M292.382,1481.41C292.382,1481.41 321.635,1474.98 336.133,1483.47M292.382,1462.13C292.382,1462.13 321.635,1455.7 336.133,1464.19M292.382,1452.48C292.382,1452.48 321.635,1446.05 336.133,1454.54" style="fill:white;stroke:black;stroke-width:6.96px;"/>
        <path d="M295.119,1710.23L295.19,1748.92L278.978,1748.92C278.978,1748.92 269.628,1748.12 269.464,1757.09C269.288,1766.73 278.681,1765.87 278.681,1765.87L307.2,1766L307.144,1710.19L295.119,1710.23Z" style="fill:rgb(217,183,255);stroke:black;stroke-width:6.96px;"/>
        <g transform="matrix(-1,0,0,0.72672,611.938,522.887)">
            <path d="M298.962,1633.89L299.136,1749L278.978,1748.92C278.978,1748.92 269.628,1748.12 269.464,1757.09C269.288,1766.73 278.681,1765.87 278.681,1765.87L307.2,1766L307.04,1633.79L298.962,1633.89Z" style="fill:rgb(234,234,255);stroke:black;stroke-width:7.96px;"/>
        </g>
        <g transform="matrix(1,0,0,1,0,-4.90121)">
            <path d="M331.295,1738.1L331.295,1784.39" style="fill:none;stroke:black;stroke-width:6.96px;"/>
        </g>
        <path d="M352.253,1710.14L331.295,1745.17" style="fill:none;stroke:black;stroke-width:6.96px;"/>
        <g transform="matrix(0.850634,0,0,0.912371,50.6986,149.857)">
            <rect x="321.114" y="1710.14" width="17.507" height="30.611" style="fill:rgb(234,234,255);stroke:black;stroke-width:7.89px;"/>
        </g>
        <path d="M311.963,1802.23C288.095,1801.44 264.975,1801.74 254.598,1845.15C245.265,1884.19 233.004,1878.31 217.517,1915.61C234.908,1916.49 239.005,1916.4 263.476,1905.95C248.657,1912.31 240.886,1917.87 217.823,1917.45C203.299,1917.18 201.906,1936.79 225.43,1935.9C266.672,1934.33 296.207,1903.14 370.645,1926.98C406.039,1938.31 420.639,1944.66 444.984,1929.95C487.332,1904.37 505.215,1922.56 525.121,1931.11C575.335,1952.65 581.338,1907.3 618.575,1926.81C661.799,1949.46 706.99,2094.7 675.049,1959.23C674.02,1954.86 666.291,1932.4 651.071,1919.97C624.788,1898.5 578.445,1895.38 553.02,1873.22C519.436,1843.94 514.102,1833 487.892,1815.82C454.236,1793.76 342.524,1803.24 311.963,1802.23Z" style="fill:rgb(217,183,255);stroke:black;stroke-width:6.96px;"/>
        <path d="M307.271,1818.34C297.64,1832.71 297.477,1832.85 295.029,1849.27M365.899,1821.96C338.863,1849.43 357.21,1878.5 319.185,1892.69M409.302,1806.27C413.423,1810.89 414.08,1811.61 414.946,1818.01M421.655,1842.84C422.532,1876.12 422.588,1877.1 431.319,1885.11M471.47,1845.2C489.733,1853.28 495.695,1869.37 507.95,1886.33C515.636,1896.97 540.369,1899.45 543.386,1899.76" style="fill:none;stroke:black;stroke-width:6.96px;"/>
        <path d="M436.834,1529.09C433.859,1543.68 434.314,1543.71 435.92,1558.45" style="fill:white;stroke:black;stroke-width:6.96px;"/>
        <g transform="matrix(1,0,0,1.38936,15.3544,-468.716)">
            <path d="M436.834,1529.09C433.859,1543.68 434.314,1543.71 435.92,1558.45" style="fill:white;stroke:black;stroke-width:5.75px;"/>
        </g>
    </g>
    <g id="Layer33" transform="matrix(1,0,0,1,0,-1198)">
        <g transform="matrix(1,0,0,1,-78.3211,-52.909)">
            <path d="M747.151,2940.71L760.511,2439.29L807.007,2439.29L777.079,2940.71L747.151,2940.71Z" style="fill:rgb(207,205,255);stroke:black;stroke-width:6.96px;"/>
        </g>
        <g>
            <path d="M647.942,2612.99C716.201,2573.72 717.047,2571.97 722.867,2575.3C736.309,2583.01 734.514,2591.43 761.123,2667.84C750.954,2678.6 713.839,2704.35 692.951,2679.46C676.746,2660.16 676.045,2652.88 664.499,2640.08C655.239,2629.82 643.496,2619.45 647.942,2612.99Z" style="fill:rgb(235,235,235);stroke:black;stroke-width:6.96px;"/>
            <path d="M837.228,2806.763C840.993,2806.616 897.107,2804.381 872.467,2838.029C853.127,2864.436 829.234,2842.18 746.744,2897.03C715.986,2917.48 715.571,2922.65 629.138,2920.81C602.894,2920.25 582.736,2902.07 614.364,2892.21C649.367,2881.29 652.721,2891.18 720.276,2857.36C758.143,2838.4 750.544,2816.732 837.228,2806.763Z" style="fill:rgb(207,205,255);stroke:black;stroke-width:6.96px;"/>
            <path d="M676.096,2668.37C696.302,2665.03 713.528,2662.23 751.618,2620.46C768.523,2665.45 771.753,2695.89 810.874,2731.95C846.964,2765.21 871.664,2789.08 782.527,2832.37C759.372,2843.61 701.51,2894.95 699.218,2847.62C697.153,2804.99 721.313,2789.09 723.112,2761.27C725.581,2723.1 719.688,2723.09 676.096,2668.37Z" style="fill:rgb(217,183,255);stroke:black;stroke-width:6.96px;"/>
            <g transform="matrix(0.591543,-0.128312,0.182059,0.839325,-237.184183,530.506814)">
                <path d="M689.023,2907.908C709.57,2904.041 674.122,2830.61 649.432,2857.44C652.314,2857.17 627.53,2871.886 602.277,2877.758C589.733,2880.675 582.413,2903.77 621.311,2907.03C653.946,2909.773 672.482,2911.02 689.023,2907.908Z" style="fill:rgb(217,183,255);stroke:black;stroke-width:6.96px;"/>
            </g>
            <path d="M697.641,2803.31C670.699,2827.686 660.409,2837.884 640.967,2869.962C650.333,2858.577 658.588,2867.45 671.186,2868.979C684.782,2870.628 692.701,2904.244 689.023,2907.908C689.023,2907.908 727.04,2893.449 764.633,2870.64C775.587,2863.99 769.292,2859.91 743.624,2826.78C728.207,2806.89 701.743,2803.79 697.641,2803.31Z" style="fill:rgb(169,166,255);stroke:black;stroke-width:6.96px;"/>
            <path d="M873.369,2813.476C879.641,2818.021 881.595,2825.566 872.467,2838.029C853.127,2864.436 829.234,2842.18 746.744,2897.03C715.986,2917.48 715.571,2922.65 629.138,2920.81C611.598,2920.44 596.777,2912.19 598.316,2903.82C604.029,2907.01 612.177,2909.2 621.015,2909.39C707.449,2911.23 707.864,2906.07 738.621,2885.61C821.111,2830.76 848.211,2851.312 867.553,2824.905C870.768,2820.514 872.609,2816.73 873.369,2813.476Z" style="fill:rgb(169,166,255);stroke:black;stroke-width:6.96px;"/>
        </g>
        <path d="M747.151,2940.71L760.511,2439.29L807.007,2439.29L777.079,2940.71L747.151,2940.71Z" style="fill:rgb(207,205,255);stroke:black;stroke-width:6.96px;"/>
        <g transform="matrix(0.871627,0.021724,-0.023688,0.950421,118.1,45.211)">
            <path d="M1269.27,2917.64C1265.53,2841.68 1141.12,2473.59 1289.48,1965.89C1298.67,1934.46 1307.83,1825.01 1315.47,1816.13C1317.63,1813.61 1343.03,1818.34 1343.21,1833.4C1343.36,1844.92 1318.27,1973.8 1299.2,2064.08C1275.47,2176.38 1253.58,2329.14 1264.06,2568.11C1268.37,2666.43 1311.29,2930.64 1311.29,2930.64L1284.48,2931.68L1269.27,2917.64Z" style="fill:rgb(169,166,255);stroke:black;stroke-width:7.63px;"/>
        </g>
        <g transform="matrix(0.871627,0.021724,-0.023688,0.950421,134.311,45.615)">
            <path d="M1265.88,2931.68C1262.14,2855.72 1141.12,2473.59 1289.48,1965.89C1298.67,1934.46 1307.83,1825.01 1315.47,1816.13C1317.63,1813.61 1343.03,1818.34 1343.21,1833.4C1343.36,1844.92 1318.27,1973.8 1299.2,2064.08C1275.47,2176.38 1253.58,2329.14 1264.06,2568.11C1268.37,2666.43 1311.29,2930.64 1311.29,2930.64L1265.88,2931.68Z" style="fill:rgb(207,205,255);stroke:black;stroke-width:7.63px;"/>
        </g>
        <g transform="matrix(1,0,0,1,-14.3671,0)">
            <path d="M747.429,2930.29L760.511,2439.29L774.878,2439.29L761.518,2940.71L747.429,2930.29Z" style="fill:rgb(169,166,255);stroke:black;stroke-width:6.96px;"/>
        </g>
        <g transform="matrix(1,0,0,1,-0,-71.2534)">
            <path d="M686.989,2394.26L753.9,2447.67L1245.45,2449.22L1140.84,2394.26L686.989,2394.26Z" style="fill:rgb(207,205,255);stroke:black;stroke-width:6.96px;"/>
        </g>
        <g transform="matrix(1,0,0,1,-18.5987,0)">
            <path d="M1269.27,2917.64C1265.53,2841.68 1141.98,2483.39 1290.35,1975.7C1299.53,1944.27 1308.69,1834.82 1316.33,1825.93C1318.5,1823.42 1343.89,1828.15 1344.08,1843.21C1344.22,1854.72 1319.13,1983.61 1300.06,2073.89C1276.33,2186.19 1253.58,2329.14 1264.06,2568.11C1268.37,2666.43 1311.29,2930.64 1311.29,2930.64L1288.97,2928.89L1269.27,2917.64Z" style="fill:rgb(169,166,255);stroke:black;stroke-width:6.96px;"/>
        </g>
        <path d="M1270.37,2928.89C1266.63,2852.93 1141.98,2483.39 1290.35,1975.7C1299.53,1944.27 1308.69,1834.82 1316.33,1825.93C1318.5,1823.42 1343.89,1828.15 1344.08,1843.21C1344.22,1854.72 1319.13,1983.61 1300.06,2073.89C1276.33,2186.19 1253.58,2329.14 1264.06,2568.11C1268.37,2666.43 1311.29,2930.64 1311.29,2930.64L1270.37,2928.89Z" style="fill:rgb(207,205,255);stroke:black;stroke-width:6.96px;"/>
        <path d="M753.186,2377.97L753.9,2447.67L1207.55,2449.22L1207.04,2377.97L753.186,2377.97Z" style="fill:rgb(169,166,255);stroke:black;stroke-width:6.96px;"/>
        <g transform="matrix(1,0,0,1,-0,-71.2534)">
            <path d="M686.989,2394.26L753.9,2447.67L753.9,2518.92L686.989,2467.62L686.989,2394.26Z" style="fill:rgb(169,166,255);stroke:black;stroke-width:6.96px;"/>
        </g>
        <path d="M1301.65,1780.92C1225.14,1810.32 1208.47,1774.94 1191.04,1807.11C1189.32,1810.28 1184.18,1858.51 1173,1906.71C1162.16,1953.46 1145.17,2000.19 1149.29,2005.77C1161.95,2022.94 1169.89,2014.19 1234.58,2028.11C1275.67,2036.95 1267.47,2015.89 1273.4,1985.31C1284.89,1926.07 1276.42,1924.9 1287.26,1889.29C1289.8,1880.92 1321.36,1777.19 1301.65,1780.92Z" style="fill:rgb(169,166,255);stroke:black;stroke-width:6.96px;"/>
        <path d="M1311.93,1776.49C1288.28,1772.43 1286.36,1790.72 1284.38,1823.07C1281.76,1865.95 1272.74,1916.3 1245.45,2002.33C1238.72,2023.57 1239.46,2037.14 1261.67,2037.49C1273.57,2037.68 1279.95,2032.36 1286.58,2010.9C1295.04,1983.54 1321.97,1880.83 1325.6,1799.73C1326.22,1786.01 1319.86,1777.84 1311.93,1776.49Z" style="fill:rgb(207,205,255);stroke:black;stroke-width:6.96px;"/>
    </g>
    <g id="Layer32" transform="matrix(1,0,0,1,0,-1198)">
        <path d="M684.102,1787.54C564.069,1778.49 519.679,1761.82 516.537,1760.46C484.464,1746.55 478.085,1738.33 419.125,1759.33C448.294,1794.34 486.804,1785.78 508.171,1789.07C537.178,1793.55 629.366,1849.26 697.635,1827.83C701.463,1826.63 692.888,1790.42 684.102,1787.54Z" style="fill:rgb(235,235,235);stroke:black;stroke-width:6.96px;"/>
        <path d="M702.421,1794.69C713.994,1782.04 719.503,1786.53 720.476,1778.64C722.696,1760.67 730.434,1759.2 744.149,1770.89C743.796,1749.88 741.215,1748.44 754.294,1731.97C798.358,1676.47 792.069,1672.7 801.714,1642.5C803.797,1635.98 818.478,1583.49 849.656,1585.35C853.249,1585.56 858.906,1583.7 856.669,1598.27C854.082,1615.12 845.981,1620.63 838.474,1658.96C827.098,1717.06 825.773,1716.58 813.49,1774.37C805.308,1812.87 809.449,1817.86 776.008,1838.73C774.17,1839.87 746.281,1849.98 738.32,1850.2C700.971,1851.27 707.25,1820.33 702.421,1794.69Z" style="fill:rgb(207,205,255);stroke:black;stroke-width:6.96px;"/>
        <g transform="matrix(0.992072,0.125667,-0.125667,0.992072,231.713,-75.1296)">
            <path d="M748.859,1777.83C759.791,1795.37 756.726,1788.95 764.081,1808.07" style="fill:none;stroke:black;stroke-width:6.96px;"/>
        </g>
        <path d="M656.387,1784.79C665.846,1765.51 673.278,1779.53 698.333,1773.94C718.647,1769.42 724.927,1835.08 724.806,1836.09C722.057,1858.98 669.587,1856.69 672.249,1832.76C672.322,1832.11 676.836,1812.24 670.098,1802.26C668.919,1800.51 661.335,1792.23 656.387,1784.79Z" style="fill:rgb(207,205,255);stroke:black;stroke-width:6.96px;"/>
        <path d="M704.231,1828.62C601.916,1805.75 537.057,1765.97 466.185,1759.01C459.328,1758.33 446.485,1752.01 430.145,1750.87C412.856,1749.66 391.508,1749.41 385.298,1753.97C353.684,1777.15 353.659,1776.94 326.53,1805.11C334.271,1809.74 335.789,1812.4 342.96,1808.9L341.232,1815.11C344.579,1815.36 352.813,1816.83 356.771,1815.86C361.676,1814.67 368.686,1807.59 379.708,1804.85C393.547,1801.41 411.258,1802.33 411.258,1802.33C411.258,1802.33 416.094,1803.15 427.655,1807.55C479.967,1827.46 480.957,1824.31 536.546,1820.96C529.908,1821.68 522.019,1821.63 515.38,1822.35C562.233,1844.55 564.898,1841.64 610.117,1866.97C649.498,1889.03 648.823,1889.72 688.239,1911.56C689.672,1908.39 693.688,1906.04 694.136,1866.14C694.198,1860.61 691.299,1860.01 704.231,1828.62Z" style="fill:rgb(235,235,235);stroke:black;stroke-width:6.96px;"/>
        <path d="M871.656,2342.5C997.05,2211.79 1135.1,2022.67 1135.1,2022.67C1135.1,2022.67 1125.94,2074.21 1135.1,2116.3C1141.11,2143.88 1216.15,2335.22 1025.46,2361.11C1007.01,2363.61 994.407,2360.43 924.807,2349.73C883.816,2343.43 870.86,2348.2 871.656,2342.5Z" style="fill:rgb(169,166,255);stroke:black;stroke-width:6.96px;"/>
        <path d="M800.594,1732.35C806.473,1686.94 815.766,1677.02 824.566,1647.11C839.226,1597.29 833.31,1592.34 873.463,1559.26C886.712,1548.35 957.486,1508.8 975.708,1523.4C1020.17,1559.03 1088.56,1673.67 1098.15,1713.78C1112.9,1775.48 1120.47,1774.41 1118.98,1837.64C1115.61,1980.4 1162.59,2053.8 1079.15,2017.91C1078.21,2017.5 1012.27,2014.24 891.946,1864.35C842.124,1802.29 853.931,1774.69 807.221,1746.41C800.657,1742.43 801.785,1736.91 800.594,1732.35Z" style="fill:rgb(207,205,255);stroke:black;stroke-width:6.96px;"/>
        <path d="M343.736,1809.8C346.006,1807.66 368.035,1786.85 374.533,1785.81C395.473,1782.47 395.742,1784.64 416.407,1779.83" style="fill:none;stroke:black;stroke-width:6.96px;"/>
        <path d="M360.039,1773.08C370.657,1765.08 387.36,1768.01 422.666,1765.25" style="fill:none;stroke:black;stroke-width:6.96px;"/>
        <path d="M382.375,1757.5C385.665,1757.45 385.541,1757.08 423.495,1756.53" style="fill:none;stroke:black;stroke-width:6.96px;"/>
        <path d="M978.894,1786.23C1015.98,1771.02 1014.97,1769.29 1039.86,1754.66" style="fill:none;stroke:black;stroke-width:6.96px;"/>
        <path d="M968.244,1801.7C999.437,1815.04 1001.89,1816.08 1026.61,1812.98" style="fill:none;stroke:black;stroke-width:6.96px;"/>
        <g>
            <path d="M437.247,2608.1C427.457,2683.33 405.066,2713.56 421.748,2723.27C423.293,2724.17 471.24,2743.51 479.972,2728.05C489.114,2711.86 490.149,2687.58 513.689,2630.2C494.586,2614.99 484.131,2623.24 437.247,2608.1Z" style="fill:rgb(235,235,235);stroke:black;stroke-width:6.96px;"/>
            <path d="M202.041,2811.75C244.063,2829.64 234.845,2828.14 276.955,2845.85C331.79,2868.92 330.47,2872.49 388.382,2886.41C407.832,2891.09 406.975,2893.44 436.588,2899.33C469.737,2905.92 466.033,2936.2 438.494,2930.63C411.581,2925.19 409.79,2924.68 331.358,2907.75C277.997,2896.23 215.797,2857.16 192.666,2839.71C177.045,2827.92 182.744,2812.68 186.513,2808.67C188.746,2806.29 192.725,2807.78 202.041,2811.75Z" style="fill:rgb(207,205,255);stroke:black;stroke-width:6.96px;"/>
            <path d="M459.991,2916.45C462.023,2925.46 454.072,2933.78 438.494,2930.63C411.581,2925.19 409.79,2924.68 331.358,2907.75C277.997,2896.23 215.797,2857.16 192.666,2839.71C177.045,2827.92 182.744,2812.68 186.513,2808.67C186.589,2808.59 186.667,2808.51 186.747,2808.44C186.526,2814.43 188.827,2821.62 197.082,2827.85C220.213,2845.31 282.412,2884.38 335.774,2895.89C414.206,2912.82 415.997,2913.34 442.91,2918.78C450.511,2920.31 456.296,2919.12 459.991,2916.45Z" style="fill:rgb(169,166,255);stroke:black;stroke-width:6.96px;"/>
            <path d="M407.592,2700.32C441.634,2718.97 479.853,2722.68 487.215,2719.16C481.065,2743.18 466.8,2753.29 464.72,2798.17C461.269,2872.65 472.946,2932.18 396.408,2897.18C340.727,2871.72 296.123,2892.45 301.295,2850.18C303.386,2833.09 304.224,2833.23 301.037,2816.01C300.144,2811.2 338.436,2812.16 365.311,2796.21C373.747,2791.2 391.62,2786.87 394.492,2775.49C403.211,2740.95 409.541,2698.5 407.592,2700.32Z" style="fill:rgb(217,183,255);stroke:black;stroke-width:6.96px;"/>
            <path d="M438.954,2782.56C433.337,2819.51 450.293,2831.93 418.632,2842.6" style="fill:none;stroke:black;stroke-width:6.96px;"/>
            <g transform="matrix(0.34618,0,0,0.502542,129.383343,1394.058847)">
                <path d="M326.546,2894.06C316.366,2893.86 241.937,2862.31 204.282,2834.02C172.594,2810.22 190.018,2792.5 204.906,2794.55C285.085,2805.56 312.778,2796.79 320.51,2806.51C327.444,2815.231 330.48,2831.393 331.189,2847.698C332.028,2866.971 329.615,2886.443 326.546,2894.06Z" style="fill:rgb(217,183,255);stroke:black;stroke-width:12.9px;"/>
            </g>
            <path d="M326.546,2894.06C319.015,2893.912 239.373,2856.16 239.373,2856.16C244.426,2831.416 243.635,2812.515 238.109,2798.349C238.109,2798.349 313.96,2798.276 320.51,2806.51C335.64,2825.54 332.212,2880 326.546,2894.06Z" style="fill:rgb(169,166,255);stroke:black;stroke-width:6.96px;"/>
        </g>
        <path d="M1119.66,1983.51C1119.79,1983.91 1118.12,1990.37 1124.79,1994.03C1138.49,2001.53 1134.68,1982.57 1134.43,1981.32C1127.31,1945.77 1128.44,1876.38 1125.17,1801.7C1122.17,1733.19 1107.81,1712.47 1091.55,1676.18C1077.48,1644.8 1074,1642.61 1065.25,1622.35C1064.27,1620.1 1036.24,1576.68 1024.51,1565.35C1023.38,1564.25 996.768,1523.75 936,1553.84C925.594,1559 904.121,1577.85 896.379,1587.31C878.698,1608.91 870.519,1635.42 867.946,1642C860.169,1661.9 857.335,1684.58 848.879,1717.58C853.392,1716.82 860.59,1714.67 865.103,1713.92C871.741,1688.3 877.498,1645.1 895.37,1614.13C914.224,1581.47 937.838,1566.4 961.725,1557.56C1023.59,1534.68 1074.71,1669.59 1086.88,1697.98C1108.74,1748.97 1109.2,1762.11 1111.4,1814.43C1113.55,1865.73 1114.96,1878.19 1115.14,1904.79C1115.32,1930.84 1111.84,1945.34 1119.66,1983.51Z" style="fill:rgb(217,183,255);stroke:black;stroke-width:6.96px;"/>
        <path d="M852.14,1584.18C839.23,1607.01 828.805,1644.8 812.413,1705.62C804.94,1705.13 799.974,1700.58 799.974,1700.58C799.974,1700.58 810.652,1669.32 823.028,1626.63C829.798,1603.28 831.644,1598.81 839.459,1584.32C844.123,1575.67 856.713,1576.09 852.14,1584.18Z" style="fill:white;stroke:black;stroke-width:6.96px;"/>
        <path d="M1134.67,2020.96C1132.74,1999.91 1138.65,2004.9 1132.6,1984.57C986.053,1974.18 1009.91,1925.24 907.135,1794.28C884.522,1765.46 884.632,1720.88 872.958,1697.85C846.885,1702.76 844.423,1707.51 802.03,1694.05C780.87,1761.99 767.164,1785.67 788.362,1812.66C809.997,1840.2 796.634,1846.58 816.779,1880.27C828.539,1899.94 824.734,1901.01 822.59,1924.14C822.015,1930.35 823.623,1930.27 826.059,2001.98C841.085,2010.47 840.703,2010.52 856.578,2017.95C854.356,2018.66 852.364,2019.99 850.142,2020.71L830.307,2026.59C830.266,2041.98 830.225,2057.37 830.183,2072.76L829.87,2061.36C807.666,2060.91 807.991,2058.14 788.999,2069.71C759.799,2087.5 749.325,2069.61 658.916,2096.29C573.316,2121.55 568.954,2103.22 521.27,2124.7C369.607,2193.03 389.327,2224.59 378.607,2343.52C375.723,2375.51 334.112,2486.18 328.182,2522.47C325.142,2541.07 393.304,2560.09 399.587,2561.84C402.407,2609.2 400.233,2621.07 447.298,2627.13C500.122,2633.93 563.408,2651.91 606.438,2639.64C645.329,2628.55 648.164,2636.04 681.641,2613.95C698.613,2602.75 717.757,2609.09 739.234,2590.95C765,2569.18 781.062,2569 763.926,2539.76C757.703,2529.14 714.669,2484.15 715.37,2440.17C715.968,2402.71 742.27,2396.78 714.035,2371.42C724.799,2366.66 724.747,2367.55 734.696,2365.36C732.133,2359.44 729.571,2353.53 727.009,2347.61C832.957,2366.62 849.683,2359.56 980.577,2324.38C995.609,2320.34 1090.29,2294.89 1101.29,2171.79C1108.22,2094.2 1119.96,2097.05 1134.67,2020.96Z" style="fill:rgb(217,183,255);stroke:black;stroke-width:6.96px;"/>
        <path d="M400.456,2563.86C402.617,2463.52 406.452,2426.14 407.03,2405.01C408.547,2349.57 403.235,2349.51 409.488,2301.01M624.036,2286.09C679.264,2328.46 691.485,2342.12 696.565,2347.8M602.244,2311.02C626.279,2351.55 650.437,2351.83 688.408,2364.58M616.394,2387.88C658.484,2404.82 678.491,2393.34 703.536,2383.22M830.188,2098.47C861.203,2100.16 892.464,2121.21 896.089,2124.43C920.119,2145.81 917.631,2152.89 960.804,2158.52M869.197,2084.03C905.265,2099.5 909.959,2102.37 931.623,2136.4M709.671,2121.44C743.432,2110.8 744.237,2116.3 768.239,2111.68M481.747,2192.9C520.144,2168.73 520.085,2167.69 601.324,2143.06M887.385,2022.07C947.176,2034.01 986.729,2020.11 987.608,2019.89M956.807,2062.66C962.089,2063.12 1002,2066.54 1022.67,2055.42C1094.58,2016.71 1094.72,2017.04 1100.78,2013.34M1032.92,2110.76C1051.64,2090.5 1082.87,2059.12 1104.02,2036.29M1015.62,1977.77C1038.15,1990.2 1056.18,1991.13 1085.16,1994.02" style="fill:none;stroke:black;stroke-width:6.96px;"/>
        <path d="M1147.12,2075.91C1148.38,2105.69 1149.6,2105.57 1147.51,2135.37C1146.31,2152.5 1150.68,2226.05 1152.15,2228.63C1153.41,2230.85 1168.76,2235.99 1171.48,2228.82C1176.55,2215.46 1167.66,2211.63 1164.69,2163.77C1163.44,2143.7 1158.26,2103.12 1147.12,2075.91Z" style="fill:rgb(217,183,255);stroke:black;stroke-width:6.96px;"/>
        <path d="M1132.51,1979.05C1131.77,1971.65 1134.08,1970.42 1136.79,1966.91C1136.79,1966.91 1159.01,1994.54 1169.37,2025.09C1187.02,2077.15 1198.04,2097.3 1195.57,2111.29C1195.14,2113.72 1167.28,2142.63 1155.41,2127.67C1155.29,2127.53 1139.12,2079.83 1132.51,1979.05ZM1138.21,1973.65C1146.52,2009.39 1147.38,2072.38 1167.01,2113.07C1174.88,2114.85 1180.65,2103.53 1180.65,2103.53C1180.65,2103.53 1162.25,2056.16 1143.26,1995.4C1142.18,1991.94 1138.79,1973.83 1138.56,1973.16C1138.4,1972.72 1138.5,1973.25 1138.21,1973.65Z" style="fill:rgb(217,183,255);stroke:black;stroke-width:6.96px;"/>
        <path d="M984.522,1589.96C993.043,1594.25 1049.33,1619.18 1031.73,1695.84" style="fill:none;stroke:black;stroke-width:6.96px;"/>
        <path d="M1026.65,1710.27C1016.1,1731.88 1015.14,1732.95 1013.66,1734.59C980.17,1771.78 985.894,1775.48 958.357,1817.19C938.034,1847.98 935.682,1846.06 928.462,1857.32C911.485,1883.79 918.809,1892.42 886.47,1904.37C866.12,1911.89 864.55,1948.6 854.786,1949.82C831.753,1952.71 825.731,1971.94 804.52,1965.79C783.741,1959.76 768.994,1966.5 729.753,1941.22C708.177,1927.32 690.306,1923.52 718.729,1852.52C727.223,1831.3 754.859,1818.88 773.332,1832.63C767.225,1802.86 788.122,1817.64 792.675,1812.84C798.938,1806.24 779.958,1787.9 803.251,1777.37C837.305,1761.96 819.034,1744.9 846.614,1719.87C885.461,1684.61 865.333,1672.67 892.03,1627.77C899.267,1615.59 913.641,1590.98 959.777,1587.24" style="fill:rgb(207,205,255);stroke:black;stroke-width:6.96px;"/>
        <path d="M811.795,1798.5C855.587,1800.55 886.856,1783.42 892.674,1780.24" style="fill:none;stroke:black;stroke-width:6.96px;"/>
        <path d="M795.486,1832.94C816.56,1848.25 829.607,1857.55 837.121,1882.3" style="fill:none;stroke:black;stroke-width:6.96px;"/>
        <path d="M770.156,1830.74C787.931,1863.69 780.459,1905.49 794.72,1899.74C800.629,1897.36 801.556,1880.78 799.444,1872.54C798.775,1869.92 797.486,1864.89 781.109,1844.25" style="fill:none;stroke:black;stroke-width:6.96px;"/>
        <path d="M702.895,1814.42C690.355,1824.91 688.68,1824.18 679.89,1847.85C677.579,1854.08 664.801,1888.49 677.344,1930.82C678.703,1935.4 682.538,1930.22 731.133,1956.97C747.518,1933.14 733.871,1897.05 750.352,1824.12C737.106,1813.81 727.343,1822.69 702.895,1814.42Z" style="fill:rgb(207,205,255);stroke:black;stroke-width:6.96px;"/>
        <path d="M919.732,1478.74C933.469,1472.53 937.37,1469.73 944.011,1483.44C951.003,1497.88 947.95,1499.93 960.171,1510.48C975.797,1523.98 881.125,1578.49 874.198,1580.56C849.172,1588.04 847.083,1582.4 846.307,1580.31C841.65,1567.74 840.631,1568.25 830.157,1560.08C815.19,1548.4 839.26,1537.79 839.796,1537.35C871.353,1511.18 896.102,1492.08 919.732,1478.74Z" style="fill:rgb(207,205,255);stroke:black;stroke-width:6.96px;"/>
        <path d="M931.304,1483.19C921.11,1498.23 914.07,1502.54 891.651,1518.36C864.725,1537.36 848.852,1542.33 835.348,1548.53" style="fill:none;stroke:black;stroke-width:6.96px;"/>
        <path d="M598.105,1921.92C644.415,1933.67 593.997,2163.72 593.997,2163.72L724.808,2178.66C724.808,2178.66 696.35,2078.84 685.815,2016.3C681.415,1990.19 681.592,1906.16 598.105,1921.92Z" style="fill:rgb(217,183,255);stroke:black;stroke-width:6.96px;"/>
        <path d="M665.412,2079.3C669.111,2123.18 668.026,2133.63 685.283,2171.57" style="fill:none;stroke:black;stroke-width:6.96px;"/>
        <path d="M625.268,2088.66C630.493,2053.03 631.088,2053.4 630.62,2017.12" style="fill:none;stroke:black;stroke-width:6.96px;"/>
        <path d="M153.653,2921.63C151.048,2920.66 114.501,2919.98 115.772,2927.33C114.356,2933.84 151.614,2934.92 153.064,2933.32L153.653,2921.63Z" style="fill:rgb(217,183,255);stroke:black;stroke-width:6.96px;"/>
        <path d="M154.222,2945.15L329.076,2945.15L331.09,2930.16L155.229,2861.02C155.006,2879.65 154.783,2898.28 154.56,2916.9C151.048,2917.68 139.184,2928.97 154.326,2936.48L154.222,2945.15Z" style="fill:rgb(169,166,255);stroke:black;stroke-width:6.96px;"/>
        <path d="M157.103,2833.07L139.882,2864.17L348.285,2945.15L354.811,2929.14L171.396,2831.02C164.643,2828.03 159.778,2828.52 157.103,2833.07Z" style="fill:rgb(207,205,255);stroke:black;stroke-width:6.96px;"/>
        <path d="M253.575,2054.13C237.1,2188.32 227.2,2187.37 231.984,2322.9C235.504,2422.59 209.594,2632.35 141.333,2695.16C90.366,2742.07 92.007,2753.39 127.047,2813.19C165.069,2878.08 68.795,2846.23 58.543,2892.74C51.06,2926.69 118.683,2926.39 115.826,2927.22" style="fill:none;stroke:black;stroke-width:6.96px;"/>
    </g>
    <g id="Layer20" transform="matrix(-1.26512,0.138062,0.138062,1.26512,3988.52,-1620.573)">
        <path d="M2680.5,1022.26C2635.3,996.401 2659.15,1017.47 2735.86,1036.58C2764.32,1043.67 2777.55,1056.19 2780.86,1080.28C2782.22,1090.28 2786.53,1122.99 2781.97,1148.53C2777.1,1175.8 2755.89,1199.05 2747.24,1206.65C2747.24,1206.65 2744.17,1088.62 2725.57,1088.09C2721.34,1072.47 2725.34,1047.91 2680.5,1022.26Z" style="fill:rgb(217,183,255);stroke:black;stroke-width:4.76px;"/>
        <g transform="matrix(0.974875,-0.222755,0.163085,0.713733,-123.595,956.179)">
            <path d="M2783.38,1132.1C2777.5,1157.55 2767.28,1175.48 2757.39,1193.81" style="fill:none;stroke:black;stroke-width:5.43px;"/>
        </g>
        <path d="M2730.03,1225.74C2734.77,1227.85 2739.48,1226.53 2748.54,1224.13C2744.8,1176.71 2745.14,1169.6 2756.73,1158.67C2764.72,1151.13 2763.3,1127.84 2765.14,1111.84C2766.23,1013.8 2642.01,1010.22 2609.89,1036.14C2530.28,1100.35 2592.76,1179.04 2559.22,1223.58C2558.37,1224.71 2555.94,1227.19 2552.81,1230.62C2560.87,1239.44 2567.24,1242.56 2584.53,1252.14C2600.93,1261.22 2616.83,1266.6 2625.24,1269.18C2629.13,1254.44 2633.03,1248.7 2655.79,1244.5C2652.62,1240.95 2649.11,1237.93 2647.33,1233.29C2646.47,1231.88 2646.2,1230.02 2646.2,1228.07C2646.03,1225.59 2646.27,1222.71 2647.09,1219.27C2646.94,1221.47 2646.21,1224.9 2646.2,1228.07C2646.34,1230.04 2646.74,1231.75 2647.33,1233.29C2654.76,1245.54 2668.97,1257.96 2686.31,1270.29C2688.51,1271.85 2696.25,1273.7 2699.59,1269.25C2702.26,1265.69 2706.35,1259.61 2713.04,1249.51C2711.94,1249.19 2710.84,1248.68 2709.84,1247.98L2713.04,1249.51C2715.67,1250.25 2718.36,1249.86 2719.9,1248.21C2721.57,1246.43 2722.14,1241.91 2724.07,1238.37C2723.74,1238.34 2723.41,1238.3 2723.07,1238.25C2717.6,1237.46 2711.21,1234.91 2707.94,1232.62C2707.26,1232.14 2706.74,1231.64 2706.32,1231.18C2705.17,1230.14 2703.97,1228.99 2704.74,1229.42C2705.14,1229.64 2705.56,1230.34 2706.32,1231.18C2707.15,1231.93 2707.94,1232.62 2707.94,1232.62C2707.94,1232.62 2716.8,1237.28 2723.07,1238.25C2723.41,1238.3 2723.74,1238.34 2724.07,1238.37C2724.76,1238.45 2727.96,1238.15 2728.35,1235.08C2728.62,1232.93 2728.63,1231.11 2730.03,1225.74C2728.36,1225 2726.69,1223.84 2724.82,1222.15C2727.43,1223.63 2727.41,1224.26 2730.03,1225.74Z" style="fill:rgb(235,235,235);stroke:black;stroke-width:4.76px;"/>
        <g transform="matrix(0.914292,-0.405056,0.405056,0.914292,-254.256,1169.96)">
            <path d="M2631.55,1183.13C2630.11,1187.43 2627.06,1199.15 2625.93,1203.19C2633.59,1205.46 2637.41,1218.23 2634.21,1227.79C2630.54,1238.74 2617.81,1241.13 2609.33,1238.36C2600.76,1235.55 2596.17,1224.39 2599.49,1214.52C2602.83,1204.63 2614.23,1198.37 2625.93,1203.19C2627.29,1197.99 2631.51,1183.32 2631.55,1183.13Z" style="fill:rgb(169,166,255);stroke:black;stroke-width:4.76px;"/>
        </g>
        <path d="M2651.21,1144.04C2648.71,1121.13 2612.3,1128.03 2618.24,1163.27C2621.29,1181.37 2622.08,1189.58 2626.72,1191.93C2633.56,1195.41 2637.91,1190.36 2639.67,1187.86" style="fill:rgb(235,235,235);stroke:black;stroke-width:4.76px;"/>
        <path d="M2524.39,1191.89C2529.56,1153.09 2529.04,987.874 2658.11,996.44C2676.49,997.659 2723.92,1016.05 2752.38,1039.54C2767.48,1052.02 2777.24,1059.8 2774.48,1080.7C2772.21,1097.8 2712.45,1129.05 2694.46,1151.13C2667.09,1184.75 2671.75,1205.53 2670.56,1218.69C2670.22,1214.26 2666.86,1183 2677.49,1161.19C2689.18,1137.22 2694.32,1133.22 2710.18,1110.38C2707.06,1114.79 2706.5,1116.04 2702.35,1121.39C2676.17,1136.34 2660.37,1136.27 2643.76,1131.97C2650.46,1128.62 2659.74,1129.52 2666.3,1124.88C2656.05,1129.8 2650.75,1128.85 2643.76,1131.97C2624.06,1123.79 2608.1,1144.48 2618.33,1221.43C2604.25,1201.08 2603.33,1195.11 2601.68,1165.68C2602.24,1173.36 2602.63,1207.87 2603.18,1215.55C2572.79,1202.98 2544.3,1196.84 2540.88,1193.46C2539.62,1192.22 2539.01,1168.62 2538.95,1166.46C2537.2,1175.21 2535.46,1183.97 2533.72,1192.72L2524.39,1191.89Z" style="fill:rgb(217,183,255);stroke:black;stroke-width:4.76px;"/>
        <g transform="matrix(0.980508,0.196478,-0.136492,0.681152,211.072,-171.992)">
            <path d="M2719.35,1149.06C2726.29,1147.01 2725.98,1146.36 2732.89,1143.98C2735.78,1142.98 2743.27,1146.44 2752.38,1151.13" style="fill:none;stroke:black;stroke-width:5.53px;"/>
        </g>
        <g transform="matrix(1,0,0,1.04147,0,-49.1765)">
            <path d="M2717.14,1167.72C2725.09,1162.75 2727.45,1163.12 2731.88,1164.22C2732.58,1164.4 2738.32,1166 2742.14,1168.94C2745.29,1171.36 2747.39,1174.02 2747.39,1174.02C2747.29,1173.75 2746.22,1177.68 2746.6,1185.77" style="fill:rgb(235,235,235);stroke:black;stroke-width:4.66px;"/>
        </g>
        <g transform="matrix(0.677498,0.735524,-0.735524,0.677498,1745.36,-1633.69)">
            <path d="M2738.58,1170.83C2737.18,1168.73 2733.26,1167.85 2731.72,1170.66C2729.65,1174.45 2732.66,1176.56 2735.79,1176.5" style="fill:rgb(235,235,235);stroke:black;stroke-width:4.76px;"/>
        </g>
        <path d="M2641.96,1147.57C2641.75,1146.98 2640.01,1142.13 2635.27,1143.45C2626.49,1145.9 2627.23,1162.39 2627.31,1164.17" style="fill:rgb(235,235,235);stroke:black;stroke-width:4.76px;"/>
        <g transform="matrix(-0.824135,0,0,0.824135,4067.32,23.4272)">
            <path d="M1610.87,1380.14C1611.67,1382.39 1611.1,1384.27 1609,1388.07" style="fill:none;stroke:black;stroke-width:6.63px;"/>
        </g>
    </g>
    <g id="table-1" serif:id="table 1" transform="matrix(1,0,0,1,0,-1198)">
        <path d="M636.094,1938.32L-85.5,1938.32L-85.228,1979.29L635.268,1979.29L636.094,1938.32Z" style="fill:rgb(207,205,255);stroke:black;stroke-width:6.96px;"/>
        <g transform="matrix(0.894346,0,0,1.73175,27.5021,-1377.39)">
            <path d="M636.094,1938.32L-85.5,1938.32L-85.228,1979.29L635.268,1979.29L636.094,1938.32Z" style="fill:rgb(169,166,255);stroke:black;stroke-width:5.05px;"/>
        </g>
        <path d="M473.617,1979.29L473.177,1938.32M295.837,1979.29L295.397,1938.32M118.057,1979.29L117.616,1938.32" style="fill:none;stroke:black;stroke-width:6.96px;"/>
        <g transform="matrix(0.205023,1.24914,-1.54412,0.253437,3488.35,1651.1)">
            <path d="M647.407,1940.53L-74.186,1940.53L-82.224,1980.14L638.272,1980.14L647.407,1940.53Z" style="fill:rgb(169,166,255);stroke:black;stroke-width:4.89px;"/>
        </g>
        <g transform="matrix(0.205023,1.24914,-1.54412,0.253437,3473.06,1651.1)">
            <path d="M647.407,1940.53L-74.186,1940.53L-82.224,1980.14L638.272,1980.14L647.407,1940.53Z" style="fill:rgb(207,205,255);stroke:black;stroke-width:4.89px;"/>
        </g>
        <g transform="matrix(-0.205023,1.24914,1.54412,0.253437,-2961.18,1651.1)">
            <path d="M647.407,1940.53L-74.186,1940.53L-82.224,1980.14L638.272,1980.14L647.407,1940.53Z" style="fill:rgb(169,166,255);stroke:black;stroke-width:4.89px;"/>
        </g>
        <g transform="matrix(-0.205023,1.24914,1.54412,0.253437,-2945.89,1651.1)">
            <path d="M647.407,1940.53L-74.186,1940.53L-82.224,1980.14L638.272,1980.14L647.407,1940.53Z" style="fill:rgb(207,205,255);stroke:black;stroke-width:4.89px;"/>
        </g>
    </g>
    <g id="Layer34">
    </g>
</svg>
