<?xml version="1.0" encoding="UTF-8" standalone="no"?>
<!DOCTYPE svg PUBLIC "-//W3C//DTD SVG 1.1//EN" "http://www.w3.org/Graphics/SVG/1.1/DTD/svg11.dtd">
<svg width="100%" height="100%" viewBox="0 0 1352 1815" version="1.1" xmlns="http://www.w3.org/2000/svg" xmlns:xlink="http://www.w3.org/1999/xlink" xml:space="preserve" xmlns:serif="http://www.serif.com/" style="fill-rule:evenodd;clip-rule:evenodd;stroke-linecap:round;stroke-linejoin:round;stroke-miterlimit:1.5;">
    <g id="Layer22">
    </g>
    <g id="sewing">
    </g>
    <g id="Layer33">
    </g>
    <g id="Layer32">
    </g>
    <g id="Layer20">
    </g>
    <g id="table-1" serif:id="table 1" transform="matrix(1,0,0,1,0,-1144)">
        <g transform="matrix(1.13526,0.033037,-0.033037,1.13526,-2633.265527,-491.191804)">
            <path d="M2771.93,1703.12L2774.23,1741.07C2774.23,1741.07 2697.59,1722.57 2650.9,1701.85C2668.11,1667.16 2671.49,1666.75 2674.72,1604.77C2677.55,1550.59 2661.38,1494.98 2679.71,1467.95C2728.44,1396.12 2833.05,1408.76 2859.09,1465.94C2865.81,1480.7 2857.7,1482.12 2869.13,1533.74C2871.23,1543.23 2877.15,1549.38 2862.6,1553.29C2861.63,1559.55 2862.83,1559.68 2859.41,1568.5C2865.48,1578.74 2866.41,1578.78 2865.27,1590.5C2863.64,1607.23 2864.84,1613.81 2864.94,1617.19C2856.58,1618.67 2852.92,1618.41 2849.09,1616.66C2848.06,1616.19 2849.16,1615.5 2848.33,1614.76C2847.42,1613.96 2847.3,1614.22 2842.78,1613.03C2844.39,1614.63 2844.23,1615.55 2849.36,1617.05C2849.54,1621.01 2849.12,1620.93 2848.71,1624.86C2848.01,1631.42 2849.72,1634.89 2846.08,1638.11C2841.79,1641.9 2834.24,1636.53 2832.45,1636.32C2838.89,1640.48 2843.55,1638.24 2844.98,1640.66C2847.57,1645.03 2847.46,1661.1 2829.52,1652.78C2831.58,1654.13 2836.42,1655 2836.42,1655C2836.42,1655 2836.15,1663.54 2834.19,1671.15C2832.35,1678.3 2828.84,1684.51 2827.95,1685.82C2823.18,1692.84 2817.64,1689.94 2805.37,1687.02C2784.19,1681.99 2773.69,1676.73 2773.69,1676.73C2773.69,1676.73 2766.61,1669.27 2765.08,1665.11C2767.33,1669.62 2773.69,1676.73 2773.69,1676.73C2773.69,1676.73 2771.36,1691.02 2771.93,1703.12Z" style="fill:rgb(235,235,235);stroke:black;stroke-width:5.33px;"/>
        </g>
        <g transform="matrix(1.13526,0.033037,-0.033037,1.13526,-2633.265527,-491.191804)">
            <path d="M2670.53,1586.28C2670.53,1586.28 2644.03,1596.97 2652.9,1607.82C2659.5,1615.9 2669.08,1607.98 2670.14,1607.1C2671.92,1622.66 2679.9,1625.66 2689.18,1613.05C2688.22,1621.34 2685.75,1628.3 2697,1627.39C2704.19,1634.77 2705.38,1633.73 2706.99,1633.44C2713.08,1632.34 2714.58,1624.72 2714.77,1623.74C2704.3,1636.91 2720.8,1637.6 2725.32,1636.82C2732.01,1635.66 2737.47,1627.8 2729.3,1621.06C2730.63,1620.85 2746.38,1621.13 2739.73,1606.76C2740.95,1607.1 2749.16,1624.47 2750.2,1614.17C2750.95,1606.81 2726.29,1588.45 2734.24,1578.52C2740.25,1571.02 2728.97,1575.46 2728.54,1566.79C2727.87,1553.07 2714.06,1538.52 2746.51,1522.79C2758.01,1517.22 2765.03,1537.5 2764.2,1554.58C2764.19,1554.86 2781.62,1553.46 2781.62,1553.46C2781.62,1553.46 2783.72,1537.79 2786.72,1528.31C2787.97,1524.34 2804.65,1520.94 2807.36,1518.18C2812.74,1512.7 2809.03,1511.72 2808.44,1512.05C2801.16,1516.13 2807.58,1524.8 2813.55,1519.04C2816.62,1516.09 2815.92,1515.71 2818.07,1510.98C2822.86,1528.03 2841.93,1526.71 2840.04,1507.49C2844.31,1512.36 2851.18,1522.54 2865.51,1519.5C2866.46,1530.33 2866.8,1532 2877.4,1534.38C2884.17,1535.9 2896.55,1529.41 2888.1,1516.72C2880.98,1506.03 2905.76,1502.65 2906.47,1493.2C2906.79,1488.93 2901.56,1474.77 2892.44,1487.4C2900.33,1469.89 2915.97,1478.02 2913.03,1462.78C2911.11,1452.79 2899.37,1443.39 2890.58,1453.71C2871.2,1444.74 2889.16,1438.43 2890.91,1432.21C2892.44,1426.77 2886.04,1422.8 2885.27,1422.32C2880.53,1419.37 2880.22,1420.77 2874.75,1422.02C2889.2,1402.2 2869.2,1396.58 2862.66,1398.61C2861.11,1399.09 2847.59,1410.93 2850.07,1397.79C2843.01,1395.9 2842.78,1395.12 2836.16,1398.23C2847.75,1391.61 2847.82,1387.87 2839.18,1377.57C2836.38,1395.06 2822.96,1387.86 2822.96,1387.86C2822.96,1387.86 2823.37,1389.31 2823.29,1392.43C2823.22,1395.6 2822.18,1397.39 2822.11,1397.51C2824.62,1390.87 2822.07,1386.06 2820.22,1384.55C2813.38,1379 2805.25,1387.62 2805.17,1387.68C2804.93,1386.15 2805.05,1373.11 2788.81,1376.81C2784.79,1377.73 2776.69,1382.19 2781.86,1388.95C2781.14,1387.01 2780.42,1385.06 2779.7,1383.11C2775.08,1381.24 2768.52,1379.27 2770.69,1374.09C2772.89,1368.83 2777.47,1370.42 2778.09,1370.63C2773.83,1368.44 2770.61,1366.97 2763.72,1372.22C2758.54,1376.18 2759.47,1379.38 2754.5,1383.48C2754.15,1383.77 2753.62,1383.8 2753.14,1383.96C2754.02,1382.85 2760.29,1372.66 2749.27,1367.38C2746.2,1365.91 2733.04,1363.61 2731.51,1374.29C2732.26,1374.05 2737.35,1373.52 2739.54,1373.59C2743.53,1373.7 2744.18,1377.87 2743.47,1381.04C2742.94,1383.36 2736.89,1390.51 2736.38,1387.48C2735.68,1383.27 2724.95,1376.7 2721.8,1386.86C2720.41,1391.34 2725.88,1396.81 2719.77,1402.35C2711.64,1409.71 2708.43,1399.38 2708.13,1398.44C2700.7,1404.25 2694.54,1401.55 2694.36,1401.59C2693.3,1401.81 2694.52,1402.77 2690.18,1409.52C2699.64,1395.35 2672.18,1386.2 2667.09,1404.95C2671,1400.75 2676.86,1399.05 2678.97,1404.04C2681.74,1410.59 2672.14,1414.01 2671.98,1414.08C2674.43,1416.59 2674.66,1416.38 2675.15,1418.94C2669.13,1405.79 2664.58,1418.31 2655.13,1417.36C2650.64,1416.91 2647.06,1411.45 2652.01,1408.07C2643.92,1412.52 2643.23,1421.23 2647.67,1424.38C2655.19,1429.73 2667.45,1427.78 2659.25,1439.03C2658.19,1438.66 2646.75,1434.66 2645.87,1443.04C2645.63,1445.28 2649.34,1450.78 2647.72,1455.07C2645.74,1460.29 2641.46,1458.45 2641.06,1464.36C2638.22,1466 2630.85,1468.2 2631.06,1479.01C2631.24,1488.69 2642.84,1486.93 2643.55,1486.94C2637.6,1488.37 2626.52,1487.17 2633.36,1497.49C2634.51,1499.23 2644.91,1508.04 2638.14,1514.22C2637.17,1515.1 2626.06,1516.78 2626.79,1528.7C2626.97,1531.7 2631.59,1539.97 2641.05,1532.66C2645.44,1529.27 2652.81,1539.02 2642.75,1543.2C2639.41,1544.59 2632.21,1545.74 2630.56,1553.18C2630.45,1553.69 2634.06,1565.74 2645.9,1556.69C2649.46,1553.98 2652.39,1556.51 2649.33,1560.58C2657.8,1561.03 2658.96,1573.18 2658.17,1575.79C2657.93,1576.61 2652.04,1579.79 2656.66,1586.14C2661.11,1592.24 2670.42,1586.34 2670.53,1586.28Z" style="fill:rgb(105,91,176);stroke:black;stroke-width:5.33px;"/>
        </g>
        <g transform="matrix(0.998402,-0.056577,0.056577,0.998402,-3102.619188,149.329129)">
            <path d="M3499.02,1425.15L3482.39,1424.46" style="fill:none;stroke:black;stroke-width:6.96px;"/>
        </g>
        <g transform="matrix(1.13526,0.033037,-0.033037,1.13526,-2633.265527,-491.191804)">
            <path d="M2691.01,1612.95C2705.99,1614.23 2703.92,1632.59 2697.6,1636.53C2685.73,1643.92 2673.34,1630.92 2684.93,1630.6C2693.51,1630.37 2698.68,1647.47 2678.07,1644.57M2729.3,1621.06C2723.96,1628.15 2725.13,1648.33 2739.84,1643.73C2745.91,1641.84 2744.85,1637.59 2743.46,1635.3C2741.12,1631.46 2735.92,1633.4 2737.65,1635.66M2728.68,1600.58C2731.44,1608.38 2723.34,1610.83 2722.32,1611.17M2671.01,1606.78C2660.12,1616.16 2669.19,1626.29 2657.1,1627.43C2647.41,1628.35 2648.64,1617.09 2651.98,1620.74M2656.93,1577.93C2656.71,1578.08 2646.15,1587.02 2642.16,1579.54C2637.44,1570.68 2650.42,1566.67 2647.99,1573.29M2646.2,1558.18C2642.66,1563.72 2643.4,1564.77 2637.25,1566.85M2638.78,1534.22C2642.66,1531.93 2644.01,1528.17 2642.91,1525.95C2641.43,1522.97 2639.32,1523.63 2639,1523.81M2648.31,1514.23C2647.66,1521.55 2648.54,1527.55 2660.64,1528.39M2635.68,1515.16C2634.61,1515.31 2625.98,1516.55 2624.26,1508.01C2623.51,1504.29 2626.7,1501.18 2628.05,1503.74M2656.03,1480.98C2659.33,1488.97 2657.18,1497.38 2648.99,1495.89M2634.91,1453.46C2635.8,1446.52 2625.49,1451.43 2629.84,1458.47C2633.7,1464.7 2649.14,1461.94 2649.17,1470.27C2649.2,1475.38 2639.28,1480.39 2639.49,1473.94M2670.46,1467.58C2667.74,1467.58 2663.66,1468.86 2658.81,1461.74C2654.02,1454.7 2661.93,1448.38 2662.85,1447.65C2665.05,1461.1 2679.64,1455.09 2675.76,1445C2675.16,1443.41 2668.21,1434.7 2676.63,1430.05C2684.1,1425.91 2687.57,1429.61 2688.2,1430.29M2705.11,1399.73C2714.37,1388.95 2697.79,1385.81 2698.52,1392.07M2736.6,1387.45C2737.52,1392.07 2737.32,1393.01 2733.69,1395.53M2746.26,1408.73C2746.88,1391.65 2764.96,1403.82 2765.32,1403.94C2772.56,1406.51 2778.78,1399.34 2772.81,1396.44M2804.83,1387.96C2804.75,1388.23 2802.46,1402.35 2793.99,1400.74C2787.31,1399.47 2791.03,1385.15 2795.71,1388.23M2850.2,1397.1C2850.2,1388.09 2857.05,1381.76 2861.69,1384.62C2867.12,1387.98 2863.15,1393.51 2860.04,1391.18M2875.45,1421.79C2874.21,1422.4 2860.13,1429.29 2858.14,1422.38C2856.99,1418.39 2861.2,1414.62 2863.75,1416.45M2853.07,1454.17C2860.52,1443.36 2866.22,1451.69 2864.93,1456.72C2863.02,1464.12 2854.71,1465.39 2857.92,1461.65C2862.03,1456.87 2872.4,1459.3 2871.19,1467.02C2870.51,1471.33 2863.85,1481.89 2853.45,1475.04M2893.17,1443.32C2898.38,1441.19 2898.33,1447.12 2894.72,1450.73C2893.74,1451.72 2880.73,1464.77 2895.41,1468.2C2901.73,1469.68 2904.56,1460.6 2899.51,1459.95M2892.3,1505.27C2878.27,1517.17 2897.85,1522.61 2903.96,1518.3C2909.56,1514.34 2905.87,1507.99 2902.18,1512.4M2875.11,1533.33C2880.5,1550.6 2894.87,1538.74 2899.37,1548.4C2908.64,1568.3 2884.55,1572.2 2879.51,1563.87C2874.15,1555 2886.17,1551.66 2886.78,1559.4M2858.96,1519.57C2875.07,1514.57 2866.63,1503.7 2860.89,1502.88C2855.35,1502.08 2853.18,1512.28 2859.45,1510.65M2838.13,1506.16C2829.48,1517.17 2841.85,1522.03 2843.76,1525.98C2847.02,1532.72 2836.7,1537.33 2835.69,1533.05M2805.48,1500.79C2812.2,1487.85 2814.66,1502.39 2822.24,1503.47C2828.8,1504.41 2832.18,1493.98 2824.75,1494.38M2796.69,1521.86C2786.9,1536.99 2807.22,1533.02 2809.6,1540.36C2813.37,1552.02 2798.03,1552.63 2801.78,1546.61M2714.57,1637.05C2713.77,1637.7 2705.57,1644.37 2711.02,1649.47C2713.19,1651.5 2717.72,1651.23 2716.78,1646.17" style="fill:none;stroke:black;stroke-width:5.33px;"/>
        </g>
        <g transform="matrix(1.13526,0.033037,-0.033037,1.13526,-2633.265527,-491.191804)">
            <path d="M2855.68,1634.73C2846.3,1626.66 2846.26,1626.86 2844.04,1625.06C2834.53,1632.53 2834.73,1633.02 2831.3,1633.41C2811.97,1635.61 2802.5,1622.15 2811.03,1611.23C2816,1604.87 2825.23,1609.44 2825.28,1615.11C2825.3,1616.56 2823.88,1620.37 2817.93,1619.8C2827,1621.3 2825.62,1611.74 2822.14,1609.79C2810.32,1603.14 2796.99,1624.4 2820.69,1635.55C2838.35,1643.86 2841.5,1641.62 2844.43,1640.91C2852.33,1638.99 2853.22,1638.13 2855.68,1634.73Z" style="stroke:black;stroke-width:5.33px;"/>
        </g>
        <g transform="matrix(1.13526,0.033037,-0.033037,1.13526,-2633.265527,-491.191804)">
            <path d="M2869.34,1548.2C2836.53,1542.31 2836.37,1542.08 2833.71,1543.19C2832.16,1543.84 2830.64,1544.54 2817.54,1559.57C2823.23,1553.63 2826.17,1548.89 2829.16,1546.78C2833.8,1543.49 2837.7,1546.13 2847.73,1549.52C2861.08,1554.04 2863.08,1556.36 2867.28,1554.2C2872.81,1551.35 2869.12,1548.7 2869.34,1548.2Z" style="stroke:black;stroke-width:5.33px;"/>
        </g>
        <g transform="matrix(1.13526,0.033037,-0.033037,1.13526,-2633.265527,-491.191804)">
            <path d="M2834.78,1566.75C2847.38,1565.2 2849.49,1561.78 2858.51,1565.89" style="fill:rgb(235,235,235);stroke:black;stroke-width:5.33px;"/>
        </g>
        <g transform="matrix(1.13526,0.033037,-0.033037,1.13526,-2633.265527,-491.191804)">
            <path d="M2857.19,1567.53C2852.58,1563.06 2848.19,1566.96 2849.69,1570.55C2851.02,1573.75 2857.49,1573.2 2857.19,1567.53Z" style="fill:rgb(235,235,235);stroke:black;stroke-width:5.33px;"/>
        </g>
        <g transform="matrix(1.135172,0.03595,-0.03595,1.135172,-2679.167441,-501.755599)">
            <path d="M2798.92,1541.39C2798.2,1527.9 2796.66,1528.2 2794.78,1514.88C2794.68,1514.14 2790.28,1511.18 2772.33,1516.92C2766.93,1518.65 2771.41,1521.47 2763.5,1553.04C2760.47,1565.16 2764.93,1564.5 2770.57,1575.27C2774.12,1582.02 2772.83,1584.6 2780.5,1584.78C2786.05,1584.9 2784.5,1588 2788.46,1591.07C2789.36,1590.92 2795.45,1589.87 2796.31,1582.73C2797.29,1574.69 2792.85,1575.21 2793.63,1567.03" style="fill:rgb(235,235,235);stroke:black;stroke-width:5.33px;"/>
        </g>
        <g transform="matrix(1.135172,0.03595,-0.03595,1.135172,-2679.167441,-501.755599)">
            <path d="M2787,1524.41C2787,1524.41 2784.5,1533 2782.18,1543.42C2779.9,1553.68 2777.79,1565.71 2778.4,1573.08" style="fill:none;stroke:black;stroke-width:5.33px;"/>
        </g>
        <g transform="matrix(6.072449,0.176713,-0.033037,1.13526,-16336.660864,-889.5423)">
            <path d="M2770.08,1602.44C2769.83,1614.04 2769.79,1617.98 2769.77,1623.59C2769.75,1629.82 2770.45,1639.92 2771.42,1646.9" style="fill:rgb(235,235,235);stroke:black;stroke-width:1.39px;"/>
        </g>
        <g transform="matrix(1.13526,0.033037,-0.033037,1.13526,-2633.265527,-491.191804)">
            <path d="M2798.66,1684.73C2803.68,1679.19 2807.27,1685.37 2811.82,1679.41C2812.67,1678.29 2816.22,1676.98 2820.32,1678.2C2825.65,1679.79 2826.25,1680.08 2831.61,1678.55C2829.59,1686.65 2823.62,1690.67 2820.65,1691.1C2817.33,1691.58 2800.23,1685.94 2798.66,1684.73Z" style="stroke:black;stroke-width:5.33px;"/>
        </g>
        <g transform="matrix(1,0,0,1,-2649.629527,-19.892804)">
            <path d="M3664.2,2885.53C3672.074,2901.967 3730.662,2880.154 3705.25,2897.738C3698.481,2902.422 3722.11,2884.52 3927.03,2789.41C3947.27,2780.01 3963.6,2771.75 3972.41,2759.91C3979.92,2749.81 3980.17,2757.86 3979.78,2744.97C3991.55,2757.73 3990.97,2780.74 3931.63,2808.27C3847.426,2847.352 3798.554,2873.058 3771.245,2892.471C3732.094,2920.303 3720.29,2907.848 3709.71,2912.49C3685.25,2923.23 3674.91,2914.11 3672.69,2912.15C3667.62,2907.67 3660,2891.8 3664.2,2885.53Z" style="fill:rgb(169,166,255);stroke:black;stroke-width:6.96px;"/>
            <g transform="matrix(1,0,0,1,-4.60637,-18.8677)">
                <path d="M3804.74,2817.11C3784.317,2826.905 3764.921,2836.372 3747.51,2845.362C3691.97,2874.04 3656.639,2897.867 3672.68,2912.02C3674.9,2913.98 3700.844,2920.207 3710.908,2918.404C3716.002,2917.492 3728.773,2921.48 3766.475,2894.665C3793.643,2875.351 3845.82,2848.1 3931.63,2808.27C3970.65,2790.16 3978.82,2784.12 3981.68,2772.77C3984.92,2759.88 3973.25,2752.74 3959.73,2752.65C3944.81,2752.54 3857.21,2791.95 3804.74,2817.11Z" style="fill:rgb(207,205,255);stroke:black;stroke-width:6.96px;"/>
            </g>
            <path d="M3613.18,2689.39C3699.03,2845.78 3649.57,2885.94 3696.71,2888.88C3736.54,2891.36 3729.01,2869.82 3812.68,2832.46C3825.19,2826.87 3836.04,2755.52 3795.61,2745.31C3746.42,2732.9 3731.42,2737.26 3710.7,2671.13C3702.57,2645.2 3607.5,2666.39 3613.18,2689.39Z" style="fill:rgb(217,183,255);stroke:black;stroke-width:6.96px;"/>
            <path d="M3801.48,2735.05C3950.89,2732.07 3960.26,2709.16 3977.42,2737.08C3989.28,2756.37 3952.69,2774.21 3949.24,2775.89C3922.36,2789 3805.03,2861.28 3796.82,2850.53C3786.68,2837.25 3783.18,2743.52 3801.48,2735.05Z" style="fill:rgb(169,166,255);stroke:black;stroke-width:6.96px;"/>
            <path d="M3672.67,2753.9C3680.28,2769.83 3673.89,2772.66 3684.95,2786.38C3690.16,2792.85 3705.14,2794.19 3707,2794.36" style="fill:none;stroke:black;stroke-width:6.96px;"/>
        </g>
        <g transform="matrix(0.85578,0.51734,-0.51734,0.85578,-1051.399527,-1502.392804)">
            <g transform="matrix(1.02534,-0.211506,0.124916,0.605565,-439.533,1926.18)">
                <path d="M3664.2,2885.53C3670.63,2902.8 3687.37,2901.41 3705.1,2893.62C3719.2,2887.44 3725.22,2887.75 3824.73,2841.14C3851.99,2828.37 3882.96,2809.86 3927.03,2789.41C3947.27,2780.01 3963.6,2771.75 3972.41,2759.91C3979.92,2749.81 3980.17,2757.86 3979.78,2744.97C3991.55,2757.73 3990.97,2780.74 3931.63,2808.27C3889,2828.06 3858.86,2846.18 3832.03,2858.75C3729.87,2906.58 3723.93,2906.25 3709.71,2912.49C3685.25,2923.23 3674.91,2914.11 3672.69,2912.15C3667.62,2907.67 3660,2891.8 3664.2,2885.53Z" style="fill:rgb(169,166,255);stroke:black;stroke-width:8.09px;"/>
            </g>
            <g transform="matrix(1.02534,-0.211506,0.124916,0.605565,-446.613,1915.73)">
                <path d="M3804.74,2817.11C3742.83,2846.8 3688.47,2868.28 3672.16,2887.84C3665.93,2895.32 3666.87,2907.01 3672.69,2912.15C3674.91,2914.11 3685.25,2923.23 3709.71,2912.49C3723.66,2906.37 3729.78,2906.66 3826.26,2861.45C3853.99,2848.45 3885.89,2829.5 3931.63,2808.27C3970.65,2790.16 3978.82,2784.12 3981.68,2772.77C3984.92,2759.88 3973.25,2752.74 3959.73,2752.65C3944.81,2752.54 3857.21,2791.95 3804.74,2817.11Z" style="fill:rgb(207,205,255);stroke:black;stroke-width:8.09px;"/>
            </g>
            <path d="M3613.18,2689.39C3699.03,2845.78 3658.45,2867.43 3704.5,2877.97C3728.5,2883.46 3729.01,2869.82 3812.68,2832.46C3825.19,2826.87 3836.04,2755.52 3795.61,2745.31C3746.42,2732.9 3731.42,2737.26 3710.7,2671.13C3702.57,2645.2 3607.5,2666.39 3613.18,2689.39Z" style="fill:rgb(217,183,255);stroke:black;stroke-width:6.96px;"/>
            <path d="M3801.48,2735.05C3840.18,2734.28 3868.84,2727.75 3891.32,2725.53C3955.61,2719.19 3964.7,2716.39 3977.42,2737.08C3989.28,2756.37 3952.69,2774.21 3949.24,2775.89C3922.36,2789 3805.03,2861.28 3796.82,2850.53C3786.68,2837.25 3783.18,2743.52 3801.48,2735.05Z" style="fill:rgb(169,166,255);stroke:black;stroke-width:6.96px;"/>
            <path d="M3680.47,2772.55C3688.08,2788.47 3681.69,2791.31 3692.74,2805.02C3697.96,2811.5 3712.93,2812.84 3714.8,2813" style="fill:none;stroke:black;stroke-width:6.96px;"/>
        </g>
        <g transform="matrix(1,0,0,1,-2649.629527,-19.892804)">
            <path d="M2865.39,2067.41C2856.58,2107.08 2860.06,2131.18 2862.74,2133.58C2870.9,2140.86 2872.41,2140.89 2999.46,2130.72C3008.66,2129.98 3097.55,2122.86 3114.16,2118.06C3118.47,2116.82 3121.83,2071.38 3107.73,2067.18C3101.79,2065.41 2884.86,2082.96 2865.39,2067.41Z" style="fill:rgb(217,183,255);stroke:black;stroke-width:6.96px;"/>
        </g>
        <g transform="matrix(0.920066,-0.391764,0.391764,0.920066,-3217.656527,1486.127196)">
            <path d="M3163.52,2005.21C3360.86,2107.52 3378.89,2123.53 3448.95,2166.72C3483.25,2187.87 3504.97,2221.02 3508.49,2268.78C3509.46,2281.85 3503.46,2302.04 3502.06,2317.54C3499.1,2350.27 3492.62,2394.09 3491.47,2444.12C3487.84,2602.54 3480.63,2555.89 3491.61,2698.5C3494.2,2698.93 3496.85,2699.02 3499.44,2699.45C3500.27,2699.59 3494.35,2720.58 3492.3,2740.41C3490.69,2755.96 3492.91,2771.42 3492.91,2771.42C3492.91,2771.42 3464.33,2771.73 3271.7,2775.36C3277.22,2771.34 3282.69,2701.62 3275.8,2701.48C3275.8,2701.48 3285.48,2693.28 3295.16,2691.09C3338.45,2681.3 3377.9,2693.52 3491.61,2698.5C3420.79,2695.47 3350.63,2686.24 3315.42,2688.17C3302.42,2688.88 3290.97,2692.04 3285.08,2695.43C3287.23,2630.22 3288.01,2642.76 3291.97,2577.91C3292.18,2574.55 3281.05,2467.33 3325.34,2412.64C3354.3,2376.89 3129.4,2068.08 3163.52,2005.21Z" style="fill:rgb(207,205,255);stroke:black;stroke-width:6.96px;"/>
        </g>
        <g transform="matrix(1,0,0,1,-2649.629527,-19.892804)">
            <path d="M3272.729,2698.715C3274.906,2633.794 3288.015,2642.672 3291.97,2577.91C3292.18,2574.55 3281.05,2467.33 3325.34,2412.64C3354.3,2376.89 3305.74,2339.81 3169.88,2346.16C3136.08,2347.73 2952.61,2366.46 2903.07,2316.4C2879.8,2292.89 2859.46,2249.39 2853.4,2212.44C2845.5,2164.21 2856.12,2123.68 2857.3,2118.12C2870.94,2121.081 2883.489,2122.542 2898.477,2122.951L2897.987,2095.957L2909.566,2093.134L2910.939,2123.072C2927.823,2123.011 2945.156,2121.777 2962.358,2119.984L2961.595,2092.292L2973.378,2090.87L2974.633,2118.405C2989.73,2116.642 3003.05,2114.94 3017.354,2112.928L3016.65,2087.389L3028.432,2085.967L3029.914,2111.22C3068.928,2105.802 3100.724,2102.088 3120.17,2108.85C3217.79,2142.81 3227.41,2126.01 3434.54,2179.33C3525.46,2202.74 3515.15,2272.36 3511.63,2427.74C3508.33,2573.44 3494.76,2559.92 3504.9,2704.87C3507.5,2705.3 3510.14,2705.4 3512.73,2705.83C3514.21,2706.07 3506.2,2777.79 3506.2,2777.79C3506.2,2777.79 3464.33,2771.73 3271.7,2775.36C3269.37,2771.19 3263.43,2705.03 3263.43,2705.03C3263.43,2705.03 3267.367,2701.698 3272.729,2698.715C3272.726,2698.803 3272.723,2698.892 3272.72,2698.98C3277.656,2696.134 3286.525,2693.45 3296.937,2692.242C3298.785,2692.036 3300.62,2691.875 3302.453,2691.755C3302.655,2691.743 3302.857,2691.731 3303.06,2691.72C3308.608,2691.416 3314.67,2691.473 3321.222,2691.797C3349.93,2693.52 3385.584,2701.753 3461.41,2705.27C3462.589,2705.326 3463.772,2705.379 3464.96,2705.43C3463.767,2705.378 3462.583,2705.325 3461.41,2705.27C3403.353,2702.516 3355.552,2693.495 3321.222,2691.797C3314.739,2691.408 3308.61,2691.351 3302.453,2691.755C3300.577,2691.869 3298.734,2692.033 3296.937,2692.242C3292.354,2692.752 3287.693,2693.534 3282.8,2694.64C3279.29,2695.434 3275.779,2697.018 3272.729,2698.715Z" style="fill:rgb(207,205,255);stroke:black;stroke-width:6.96px;"/>
        </g>
        <g transform="matrix(0.904744,0,0,0.908945,-2320.728527,132.374196)">
            <path d="M2982.9,1585.3C2887.82,1651.62 2885.96,1750.78 2906.94,1778.76C2958.42,1847.41 2935.73,1860.01 2985.63,1930.22C3057.03,2030.69 3039.42,2050.86 3162.35,2062.43C3193.77,2065.39 3183.1,2051.17 3206.96,2050.2C3244.39,2048.67 3254.18,2018.81 3254.18,2018.81C3254.18,2018.81 3278.31,2014.94 3318.55,2002.32C3336.06,1943.67 3308.87,1913.3 3308.87,1913.3L3253.55,1918.94C3240.05,1898.62 3227.42,1898.42 3212.37,1910.54C3200.79,1919.87 3201.83,1892.73 3192.19,1901.6C3183.51,1909.59 3128.93,1910.62 3122.21,1908.69C3124.26,1837.16 3116.68,1824.67 3119.66,1768.29C3123.22,1701.05 3074.57,1588.71 3061.89,1576.59" style="fill:rgb(169,166,255);stroke:black;stroke-width:7.67px;"/>
        </g>
        <g transform="matrix(1,0,0,1,-2649.629527,-19.892804)">
            <path d="M3106.45,1598.01C3071.86,1561.8 3016.02,1542.87 2972.17,1527.64C2930.07,1566.36 2902,1605.77 2882.58,1642C2847.33,1707.74 2839.05,1763.02 2840.42,1784.63C2856.91,2044.33 2843.22,1989.15 2862.09,2097.65C2913.97,2099.99 2943.43,2104.05 2962.28,2089.85C2933.77,2077.89 2935.49,2075.78 2926.67,2042.63C2936.09,2075.43 2932.8,2077.76 2962.28,2089.85C2965.47,2088.9 2968.5,2102.59 3006.27,2094.57C3025.39,2090.5 3019.9,2085.55 3025.31,2065.71C3023.36,2074.18 3021.4,2082.65 3019.45,2091.12C3036.78,2080.82 3053.85,2093.04 3063.69,2091.12C3092.05,2085.58 3078.86,2084.54 3122.36,2085.97C3145.12,2060.51 3138.47,2002.04 3127.29,1930.04C3120.34,1885.31 3121.11,1827.19 3121.11,1827.19" style="fill:rgb(169,166,255);stroke:black;stroke-width:6.96px;"/>
        </g>
        <g transform="matrix(1,0,0,1,-2649.629527,-19.892804)">
            <path d="M2949.14,1533.81C2949.14,1533.81 2958.82,1502.69 2974.28,1488.31C3021.98,1521.76 3076.03,1538.5 3110.44,1558.48C3113.57,1560.3 3128.94,1618.23 3128.39,1622.69C3107.9,1602.13 2951.23,1531.79 2949.14,1533.81Z" style="fill:rgb(169,166,255);stroke:black;stroke-width:6.96px;"/>
        </g>
        <g transform="matrix(0.996569,0.082764,-0.082764,0.996569,-2475.570527,-323.410804)">
            <path d="M3318.25,1934.17C3332.72,1934.07 3488.6,1930.79 3493.53,1928.85C3585.56,1892.8 3585.72,1888.49 3597.29,1892.98C3614.74,1899.76 3632.25,1902.82 3640.4,1903.98C3643.41,1904.35 3646.29,1905.47 3648.77,1907.23C3652.32,1909.71 3657.84,1913.54 3662.83,1916.63C3666.25,1918.75 3685.64,1930.76 3700.77,1949.67C3699.37,1951.98 3697.97,1954.29 3696.57,1956.6C3702.29,1966.71 3700.47,1970.33 3688.74,1971.6C3681.59,1972.38 3664.61,1960.88 3662.71,1959.6C3674.61,1972.37 3655.52,1975.31 3650.94,1972.84C3649.52,1972.07 3617.49,1935.7 3573.72,1966.14C3538.21,1990.83 3524.41,1983.03 3502.7,1980.92C3495.2,1980.2 3461.01,1979.36 3430.35,1986.83C3374.06,2000.55 3320.68,2012.25 3320.68,2012.25C3320.68,2012.25 3306.48,1961.59 3318.25,1934.17Z" style="fill:rgb(235,235,235);stroke:black;stroke-width:6.96px;"/>
        </g>
        <g transform="matrix(1,0,0,1,-2649.629527,-19.892804)">
            <path d="M3312.65,1931.96C3322.62,1931.89 3402.46,1931.36 3452.71,1930.4C3460.44,1930.26 3468.89,1928.55 3473.44,1929.93C3484.46,1933.28 3492.52,1929.25 3493.53,1928.85C3585.56,1892.8 3585.72,1888.49 3597.29,1892.98C3614.74,1899.76 3632.25,1902.82 3640.4,1903.98C3643.41,1904.35 3646.29,1905.47 3648.77,1907.23C3652.32,1909.71 3657.84,1913.54 3662.83,1916.63C3666.25,1918.75 3685.64,1930.76 3700.77,1949.67C3699.37,1951.98 3697.97,1954.29 3696.57,1956.6C3702.29,1966.71 3700.47,1970.33 3688.74,1971.6C3681.59,1972.38 3664.61,1960.88 3662.71,1959.6C3674.61,1972.37 3655.52,1975.31 3650.94,1972.84C3649.52,1972.07 3617.49,1935.7 3573.72,1966.14C3538.21,1990.83 3524.41,1983.03 3502.7,1980.92C3495.2,1980.2 3461.01,1979.36 3430.35,1986.83C3374.06,2000.55 3342.41,2002.33 3315.08,2010.04C3311.47,2011.06 3310.74,1981.53 3312.65,1931.96Z" style="fill:rgb(235,235,235);stroke:black;stroke-width:6.96px;"/>
        </g>
        <g transform="matrix(1,0,0,1,-2649.629527,-19.892804)">
            <path d="M2982.9,1585.3C2887.82,1651.62 2940.25,1777.85 2940.25,1777.85C2940.25,1777.85 2986.15,1880.47 3003.52,1948.8C3012.97,1985.99 3025.83,2016.35 3059.91,2049.27C3084.07,2072.59 3111.37,2057.63 3162.35,2062.43C3193.77,2065.39 3197.35,2057.58 3221.21,2056.6C3258.64,2055.08 3268.44,2025.22 3268.44,2025.22C3268.44,2025.22 3292.56,2021.35 3332.8,2008.72C3350.32,1950.08 3325.34,1925.36 3325.34,1925.36L3267.8,1925.35C3254.3,1905.03 3247.84,1912.86 3237.47,1911.96C3222.63,1910.66 3216.08,1899.13 3206.44,1908.01C3197.76,1916 3164.89,1910.42 3158.18,1908.5C3153.27,1870.86 3138.94,1862.38 3128.41,1817.97C3120.29,1783.74 3116.7,1669.81 3094.98,1642" style="fill:rgb(169,166,255);stroke:black;stroke-width:6.96px;"/>
        </g>
        <g transform="matrix(1,0,0,1,-2649.629527,-19.892804)">
            <rect x="3336.66" y="2005.1" width="691.254" height="44.17" style="fill:rgb(217,183,255);stroke:black;stroke-width:6.96px;"/>
        </g>
        <g transform="matrix(0.551622,-0.011953,0.009073,0.418717,-1033.549527,1162.627196)">
            <path d="M4027.91,2005.1C4027.91,2016.81 4024.38,2028.05 4018.09,2036.33C4011.81,2044.61 4003.28,2049.27 3994.39,2049.27L3370.18,2049.27C3361.29,2049.27 3352.77,2044.61 3346.48,2036.33C3340.19,2028.05 3336.66,2016.81 3336.66,2005.1L4027.91,2005.1Z" style="fill:rgb(105,91,176);stroke:black;stroke-width:14.2px;"/>
        </g>
        <g transform="matrix(0.142804,-0.532951,0.226699,0.060744,268.000473,3630.707196)">
            <path d="M4027.91,2005.1C4027.91,2016.81 4025.93,2028.05 4022.41,2036.33C4018.89,2044.61 4014.11,2049.27 4009.13,2049.27L3355.45,2049.27C3350.46,2049.27 3345.68,2044.61 3342.16,2036.33C3338.64,2028.05 3336.66,2016.81 3336.66,2005.1L4027.91,2005.1Z" style="fill:rgb(105,91,176);stroke:black;stroke-width:16.41px;"/>
        </g>
        <g transform="matrix(-0.018029,0,-0,-0.11359,1243.850473,2210.677196)">
            <path d="M4027.91,2005.1L4027.91,2005.11C4027.91,2016.82 3998.6,2028.05 3946.43,2036.33C3894.25,2044.61 3823.48,2049.27 3749.7,2049.27L3614.88,2049.27C3541.09,2049.27 3470.32,2044.61 3418.15,2036.33C3365.97,2028.05 3336.66,2016.82 3336.66,2005.11L3336.66,2005.1L4027.91,2005.1Z" style="fill:white;stroke:black;stroke-width:85.54px;"/>
        </g>
        <g transform="matrix(1,0,0,1,-2649.629527,-19.892804)">
            <rect x="3833.32" y="2049.27" width="64.169" height="846.67" style="fill:rgb(207,205,255);stroke:black;stroke-width:6.96px;"/>
        </g>
        <g transform="matrix(1,0,0,0.052169,-2649.629527,2724.967196)">
            <rect x="3833.32" y="2049.27" width="64.169" height="846.67" style="fill:rgb(169,166,255);stroke:black;stroke-width:9.82px;"/>
        </g>
        <g transform="matrix(0.230367,0,0,0.230367,596.900473,2182.047196)">
            <circle cx="2686.5" cy="2916.68" r="40.151" style="fill:rgb(217,183,255);stroke:black;stroke-width:30.2px;"/>
        </g>
        <g transform="matrix(8.50302,0,0,0.074106,-31651.829527,2724.177196)">
            <path d="M3897.49,2405.43L3897.49,2895.94L3833.32,2895.94L3833.32,2787.45C3833.32,2570.05 3834.75,2387.49 3836.63,2363.79C3844.1,2269.79 3861.63,2049.27 3861.63,2049.27L3869.18,2049.27L3897.49,2405.43Z" style="fill:rgb(169,166,255);stroke:black;stroke-width:1.16px;"/>
        </g>
        <g transform="matrix(1,0,0,1,-2649.629527,-19.892804)">
            <path d="M2712.54,1642L2798.24,2068.11L2844.39,2066.69L2712.54,1642Z" style="fill:rgb(169,166,255);stroke:black;stroke-width:6.96px;"/>
            <path d="M2803.39,2100.39C2803.39,2100.39 2823.14,2166.18 2796.08,2276.07L2821.12,2265.86L2852.68,2101.94L2803.39,2100.39Z" style="fill:rgb(169,166,255);stroke:black;stroke-width:6.96px;"/>
            <path d="M2659.74,1607.44C2654.48,1618.87 2655.08,1632.7 2663.97,1649.95L2698.64,1661.19C2706.52,1664.2 2711.41,1669.92 2714.23,1677.5L2830.48,2058.91L2762.58,2058.91C2762.58,2058.91 2763.92,2127.95 2762.96,2152.07C2762.25,2169.65 2760.68,2186.74 2756.78,2203.6C2749.18,2236.41 2717.37,2348.97 2717.37,2348.97C2717.37,2348.97 2713.98,2362.67 2717.55,2387.06C2721.12,2411.44 2727.6,2419.16 2739.41,2431.73C2751.21,2444.31 2782.31,2468 2782.31,2468C2782.31,2468 2803.32,2484.65 2830.48,2482.96C2857.64,2481.28 2921.79,2483.08 2921.79,2483.08L2921.79,2451.09C2921.79,2451.09 2860.28,2452.16 2837.88,2452.44C2824.8,2452.53 2810.5,2451.7 2796.16,2438.57C2781.83,2425.45 2761.88,2406.19 2761.88,2406.19C2761.88,2406.19 2746.26,2387.82 2749.98,2365.03C2753.7,2342.24 2779.79,2266.95 2786.7,2209.95C2793.61,2152.94 2794.5,2127.6 2794.5,2127.6C2794.5,2127.6 2793.03,2112.28 2804.17,2112.43C2815.3,2112.57 2824.69,2111.31 2824.69,2111.31C2824.69,2111.31 2838.97,2107.89 2838.18,2128.19C2837.4,2148.49 2826.21,2213.55 2800.97,2255.33C2800.97,2255.33 2795.69,2266.98 2775.01,2270.14L2761.26,2321.53C2761.26,2321.53 2789.74,2326.19 2810.75,2311.52C2831.77,2296.85 2854.84,2268.79 2877.47,2174.73C2900.1,2080.66 2854.55,1983.21 2854.55,1983.21L2754.52,1670.2C2754.52,1670.2 2739.62,1622.12 2700.46,1614.56C2661.3,1607 2659.74,1607.44 2659.74,1607.44Z" style="fill:rgb(217,183,255);stroke:black;stroke-width:6.96px;"/>
            <rect x="3049.62" y="2483.08" width="35.847" height="132.634" style="fill:rgb(207,205,255);stroke:black;stroke-width:6.96px;"/>
            <path d="M2912.56,2453.22L2910.65,2478.82L2955.33,2478.45L2974.41,2494.59L2989.33,2499.9L3106.27,2499.9C3117.43,2500.79 3127.86,2498.22 3137.01,2489.58C3137.02,2489.57 3137.03,2489.57 3137.04,2489.56C3137.06,2489.53 3206.6,2425.12 3206.6,2425.12L2938.6,2429.05L2938.6,2453.22L2912.56,2453.22Z" style="fill:rgb(169,166,255);stroke:black;stroke-width:6.96px;"/>
            <g transform="matrix(1,0,0,1.00367,0,-9.52704)">
                <rect x="3032.02" y="2598.9" width="68.919" height="111.214" style="fill:rgb(169,166,255);stroke:black;stroke-width:6.94px;"/>
            </g>
            <g transform="matrix(0.409424,0,0,0.568496,1810.99,1399.88)">
                <rect x="3032.02" y="2598.9" width="68.919" height="111.214" style="fill:rgb(207,205,255);stroke:black;stroke-width:14.04px;"/>
            </g>
            <g transform="matrix(0.409424,0,0,0.568496,1457.05,1375.99)">
                <rect x="3032.02" y="2598.9" width="68.919" height="111.214" style="fill:rgb(207,205,255);stroke:black;stroke-width:14.04px;"/>
            </g>
            <g transform="matrix(0.409424,0,0,0.568496,2165.37,1375.99)">
                <rect x="3032.02" y="2598.9" width="68.919" height="111.214" style="fill:rgb(207,205,255);stroke:black;stroke-width:14.04px;"/>
            </g>
            <g transform="matrix(1,0,0,1.13304,0,-248.536)">
                <path d="M2698.43,2751.17L2698.43,2724.78C2698.43,2716.91 2704.11,2709.91 2712.56,2707.38C2776.08,2688.33 3032.02,2611.6 3032.02,2611.6L3032.02,2598.9L3100.94,2598.9L3100.94,2611.6C3100.94,2611.6 3356.89,2688.33 3420.41,2707.38C3428.85,2709.91 3434.54,2716.91 3434.54,2724.78L3434.54,2751.17L3404.4,2751.17L3404.4,2742.7C3404.4,2737.61 3400.44,2733.17 3394.82,2731.98C3345.94,2721.62 3126.64,2675.12 3126.64,2675.12C3120.44,2673.81 3113.89,2675.08 3108.88,2678.56C3103.87,2682.05 3100.94,2687.37 3100.94,2693L3100.94,2702.76C3100.94,2704.71 3100.07,2706.58 3098.5,2707.96C3096.94,2709.34 3094.82,2710.11 3092.61,2710.11L3040.36,2710.11C3038.15,2710.11 3036.03,2709.34 3034.47,2707.96C3032.9,2706.58 3032.02,2704.71 3032.02,2702.76L3032.02,2693C3032.02,2687.37 3029.1,2682.05 3024.09,2678.56C3019.08,2675.08 3012.53,2673.81 3006.33,2675.12C3006.33,2675.12 2787.03,2721.62 2738.15,2731.98C2732.53,2733.17 2728.57,2737.61 2728.57,2742.7L2728.57,2751.17L2698.43,2751.17Z" style="fill:rgb(169,166,255);stroke:black;stroke-width:6.51px;"/>
            </g>
            <path d="M2808.55,2404.88C2819.6,2420.18 2835.27,2430.39 2855.64,2435.43C2856.85,2435.72 2858.08,2435.87 2859.32,2435.87C2886.35,2435.87 3211.84,2435.78 3228.28,2435.78C3228.72,2435.78 3229.16,2435.75 3229.6,2435.68C3250.37,2432.6 3265.44,2424.55 3277.14,2413.54L3272.79,2395.72L2816.12,2386.73L2808.55,2404.88Z" style="fill:rgb(207,205,255);stroke:black;stroke-width:6.96px;"/>
            <path d="M2854.36,2332.65C2849.01,2332.69 2843.73,2333.86 2838.87,2336.08C2815.73,2346.92 2792.97,2379.1 2808.55,2404.88C2808.55,2404.88 3161.87,2405.31 3232.4,2405.4C3243.29,2405.41 3254.14,2406.84 3264.66,2409.64C3277.38,2413.03 3289.53,2417.87 3300.76,2425.12C3305.75,2428.97 3311.09,2432.72 3316.78,2436.4C3326.5,2442.7 3339.42,2440.5 3346.51,2431.35C3349.4,2427.64 3352.16,2422.94 3354.77,2417.2C3355.79,2414.97 3356.51,2412.62 3356.91,2410.21C3360.16,2391.14 3353.99,2375.75 3340.3,2363.31C3316.08,2340.8 3280.23,2330.89 3235.85,2330.2C3235.65,2330.19 3235.45,2330.19 3235.25,2330.19C3224.34,2330.26 2895.87,2332.38 2854.36,2332.65Z" style="fill:rgb(217,183,255);stroke:black;stroke-width:6.96px;"/>
            <g transform="matrix(1.00783,0,0,1,-15.8118,0)">
                <path d="M3084.76,2370.15L3067.55,2450.73L3007.08,2450.73L3024.3,2370.15L3084.76,2370.15Z" style="fill:rgb(207,205,255);stroke:black;stroke-width:6.93px;"/>
            </g>
            <g transform="matrix(1.23529,0,0,1.22569,-688.931,-628.999)">
                <path d="M3163.18,2226.81C3135.3,2226.81 3111.2,2246.43 3105.33,2273.9C3091.3,2339.57 3067.55,2450.73 3067.55,2450.73L3007.08,2450.73C3007.08,2450.73 3033.36,2327.74 3045.91,2268.99C3049.68,2251.34 3040.28,2233.53 3023.65,2226.81L3173.06,2226.81L3163.18,2226.81Z" style="fill:rgb(169,166,255);stroke:black;stroke-width:5.65px;"/>
            </g>
            <path d="M3277.24,2066.57C3287.65,2067.41 3295.67,2076.11 3295.67,2086.55L3295.67,2100.39L2960.45,2100.39L2960.45,2087.16C2960.45,2076.36 2968.73,2067.37 2979.49,2066.48C3077.81,2058.6 3177.07,2058.68 3277.24,2066.57Z" style="fill:rgb(217,183,255);stroke:black;stroke-width:6.96px;"/>
            <path d="M3045.27,2733.78L3049.87,2881.2L3083.1,2881.19L3088.13,2733.78" style="fill:rgb(169,166,255);stroke:black;stroke-width:6.96px;"/>
            <g transform="matrix(0.893667,0,0,0.893667,289.932,314.408)">
                <circle cx="2686.5" cy="2916.68" r="40.151" style="fill:rgb(169,166,255);stroke:black;stroke-width:7.78px;"/>
            </g>
            <g transform="matrix(0.986445,0,0,0.986445,390.905,56.7814)">
                <circle cx="2686.5" cy="2916.68" r="40.151" style="fill:rgb(169,166,255);stroke:black;stroke-width:7.05px;"/>
            </g>
            <g transform="matrix(0.230367,0,0,0.230367,2435.64,1740.57)">
                <circle cx="2686.5" cy="2916.68" r="40.151" style="fill:rgb(217,183,255);stroke:black;stroke-width:30.2px;"/>
            </g>
            <g transform="matrix(0.893667,0,0,0.893667,997.822,314.408)">
                <circle cx="2686.5" cy="2916.68" r="40.151" style="fill:rgb(169,166,255);stroke:black;stroke-width:7.78px;"/>
            </g>
        </g>
        <g transform="matrix(1,0,0,1,-2649.629527,-19.892804)">
            <path d="M2907,1722.69C2911.39,1742.02 2908.52,1751.7 2961.78,1829.02" style="fill:none;stroke:black;stroke-width:6.96px;"/>
        </g>
        <g transform="matrix(1,0,0,1,-2649.629527,-19.892804)">
            <path d="M2881.78,1853.97C2893.07,1873.23 2894.19,1872.32 2901.5,1893.45C2904.38,1901.79 2877.32,1846.35 2881.78,1853.97Z" style="fill:none;stroke:black;stroke-width:6.96px;"/>
        </g>
        <g transform="matrix(1,0,0,1,-2649.629527,-19.892804)">
            <path d="M3106.65,1877.26C3121.88,1880.3 3122.05,1878.95 3136.61,1884.04C3142.41,1886.07 3100.62,1876.06 3106.65,1877.26Z" style="fill:none;stroke:black;stroke-width:6.96px;"/>
        </g>
        <g transform="matrix(1,0,0,1,-2649.629527,-19.892804)">
            <path d="M3145.74,1922.04C3108.04,1921.98 3093.11,1939.88 3090.05,1943.55C3122.7,1954.25 3140.14,1941.71 3143.63,1939.2" style="fill:none;stroke:black;stroke-width:6.96px;"/>
        </g>
        <g transform="matrix(1,0,0,1,-2649.629527,-19.892804)">
            <path d="M3169.78,1928.4C3167.53,1943.6 3165.81,1943.63 3151.54,1972.61" style="fill:none;stroke:black;stroke-width:6.96px;"/>
        </g>
        <g transform="matrix(1.05436,0,0,1.39299,-2990.004527,-790.068804)">
            <path d="M3423.76,1937.26C3429.23,1970.39 3430.12,1972.73 3425.52,1997.53" style="fill:none;stroke:black;stroke-width:5.63px;"/>
        </g>
        <g transform="matrix(1.02139,-0.161251,-0.161251,2.21588,-2566.672627,-1801.762804)">
            <path d="M3426.24,1910.01C3424.11,1912.52 3421.28,1917.22 3423.03,1920.56" style="fill:none;stroke:black;stroke-width:4.42px;"/>
        </g>
        <g transform="matrix(1,0,0,1,-2649.629527,-19.892804)">
            <path d="M3588.34,1931.86C3592.5,1932.38 3631.46,1937.33 3639.86,1941.45C3641.36,1942.19 3641.29,1942.28 3673.73,1965.68" style="fill:none;stroke:black;stroke-width:6.96px;"/>
        </g>
        <g transform="matrix(1,0,0,1,-2649.629527,-19.892804)">
            <path d="M3591.85,1912.02C3642.06,1921.87 3645.09,1914.36 3655.28,1925.15C3673.29,1944.21 3674.25,1942.83 3694.61,1959.39" style="fill:none;stroke:black;stroke-width:6.96px;"/>
        </g>
        <g transform="matrix(1,0,0,1,-2649.629527,-19.892804)">
            <path d="M3315.38,2346.58C3370.67,2312.29 3354.6,2292.65 3411.6,2260.61" style="fill:none;stroke:black;stroke-width:6.96px;"/>
        </g>
        <g transform="matrix(1,0,0,1,-2649.629527,-19.892804)">
            <path d="M3346.83,2346.34C3352.37,2342.01 3390.5,2312.21 3420.82,2298.89C3419.27,2328.9 3398.98,2334.74 3371.26,2350.2" style="fill:none;stroke:black;stroke-width:6.96px;"/>
        </g>
        <g transform="matrix(1,0,0,1,-2649.629527,-19.892804)">
            <path d="M3336,2665.84C3382.52,2581.08 3442.56,2510.35 3456.48,2417.54" style="fill:none;stroke:black;stroke-width:6.96px;"/>
        </g>
        <g transform="matrix(1,0,0,1,-2649.629527,-19.892804)">
            <path d="M3014.64,2183.4C3059.85,2174.5 3045.06,2170.53 3074.44,2147.04" style="fill:none;stroke:black;stroke-width:6.96px;"/>
        </g>
    </g>
    <g id="Layer34">
    </g>
</svg>
