<svg width="67" height="33" viewBox="0 0 67 33" fill="none" xmlns="http://www.w3.org/2000/svg" aria-hidden="true">
  <path d="M32.489 29.283L54.0977 29.8267C54.7934 29.8442 55.3418 29.2398 55.2556 28.5503L54.2167 20.2401C54.1338 19.5775 53.4991 19.1288 52.8454 19.2707L31.9362 23.8126C31.3691 23.9358 30.9857 24.4652 31.0463 25.0415L31.3858 28.266C31.4456 28.8335 31.9176 29.2686 32.489 29.283Z" fill="#111111"/>
  <path d="M34.511 2.74744L12.9023 2.20366C12.2065 2.18616 11.6582 2.79065 11.7444 3.48008L12.7833 11.7903C12.8662 12.4529 13.5009 12.9016 14.1546 12.7597L35.0638 8.21779C35.6309 8.0946 36.0143 7.56513 35.9537 6.98893L35.6142 3.7644C35.5544 3.19699 35.0824 2.76181 34.511 2.74744Z" fill="#111111"/>
  <path d="M56.3459 0.998994L59.0673 0.0588497C59.6838 -0.154124 60.3374 0.230814 60.4839 0.89311L66.9703 30.2179C67.1615 31.0822 66.398 31.8521 65.586 31.6138L60.4075 30.0943C59.9935 29.9729 59.6859 29.6092 59.6188 29.1621L55.5896 2.29705C55.5045 1.72985 55.8256 1.17874 56.3459 0.998994Z" fill="#111111"/>
  <path d="M10.6541 31.0315L7.93272 31.9716C7.31624 32.1846 6.66259 31.7996 6.5161 31.1373L0.0297008 1.81256C-0.161497 0.94817 0.601976 0.17827 1.41404 0.416558L6.59251 1.93611C7.00649 2.05758 7.31408 2.42118 7.38115 2.86831L11.4104 29.7333C11.4955 30.3006 11.1744 30.8517 10.6541 31.0315Z" fill="#111111"/>
  <path d="M52.2415 15.3689L41.6392 17.5957C40.979 17.7343 40.3436 17.2725 40.2731 16.6027L38.911 3.66592C38.8418 3.00836 39.3475 2.43092 40.0095 2.41157L50.4785 2.10553C51.0604 2.08852 51.5614 2.51267 51.6395 3.08857L53.1349 14.1046C53.215 14.6946 52.8252 15.2464 52.2415 15.3689Z" fill="#111111"/>
  <path d="M14.7585 16.6608L25.3608 14.4341C26.021 14.2954 26.6564 14.7573 26.7269 15.427L28.089 28.3638C28.1582 29.0214 27.6525 29.5988 26.9905 29.6182L16.5215 29.9242C15.9396 29.9412 15.4386 29.5171 15.3605 28.9412L13.8651 17.9251C13.785 17.3351 14.1748 16.7834 14.7585 16.6608Z" fill="#111111"/>
</svg>
