<svg width="174" height="43" viewBox="0 0 174 43" fill="none" xmlns="http://www.w3.org/2000/svg">
<path fill-rule="evenodd" clip-rule="evenodd" d="M4.47328 18.8731H0.907693V15.2538H6.13122L12.4166 0.820542H13.6563L26.0147 29.056H22.2515L17.8471 18.9141H8.31128L3.89737 29.1041H0L4.47328 18.8731ZM9.73193 15.2327L13.0569 7.61647L16.3084 15.2455H9.72613L9.73193 15.2327Z" fill="#335120"/>
<path fill-rule="evenodd" clip-rule="evenodd" d="M42.6231 18.6126L48.8677 29.0654H44.7098L38.5715 18.9187H32.1423V29.125H28.5428V8.72527H32.1026V15.1965H41.1348C41.6196 15.1801 42.0916 15.04 42.5064 14.7911C43.1033 14.4722 43.6512 14.0691 44.1326 13.5948C44.4493 13.2582 44.7284 12.8903 44.9668 12.4942C45.2226 11.979 45.4119 11.4345 45.5322 10.8715C45.6409 10.2453 45.6491 9.60617 45.5568 8.97763C45.4855 8.48693 45.3348 8.01025 45.1105 7.56753C44.8103 6.92022 44.3897 6.33723 43.8698 5.84769C43.4118 5.37576 42.8767 4.98556 42.289 4.69112C41.9794 4.53693 41.6407 4.45162 41.2948 4.4434H28.5497V0.803029H41.2224C42.5554 0.912813 43.8475 1.32527 44.9983 2.00875C45.9424 2.68981 46.7893 3.49827 47.5126 4.40955C48.2111 5.32557 48.7018 6.38164 48.9519 7.50552C49.1785 8.67391 49.2334 9.87025 49.1131 11.0549C49.0056 12.1122 48.6715 13.1333 48.1352 14.0504C47.6749 14.8378 47.1399 15.5797 46.5393 16.2655C45.5124 17.4385 44.142 18.2598 42.6231 18.6126Z" fill="#335120"/>
<path fill-rule="evenodd" clip-rule="evenodd" d="M55.499 29.1717V4.54157H51.3936V0.813567H68.0547V4.52058H59.1979V29.1776L55.499 29.1717Z" fill="#335120"/>
<path fill-rule="evenodd" clip-rule="evenodd" d="M70.8633 0.759669V29.1624H82.1863C82.4994 29.1542 83.2778 29.1015 83.5757 29.0071C84.2954 28.884 84.944 28.7222 85.5613 28.4749C87.7004 27.6337 89.4769 26.252 91.0247 24.5522C92.0926 23.4341 92.9758 22.1514 93.6383 20.7529C94.1781 19.5087 94.5262 18.1897 94.6687 16.8403C94.8895 15.1088 94.8136 13.3528 94.4421 11.6471C94.1604 10.3516 93.6722 9.10965 92.9945 7.97048C92.2468 6.7134 91.3285 5.56621 90.2654 4.56149C89.2863 3.69567 88.2139 2.94089 87.0679 2.31119C85.4671 1.51677 83.7334 1.02965 81.953 0.874304L70.8633 0.759669ZM74.4104 4.34415V25.6155L81.8649 25.6457C81.9793 25.6505 82.869 25.5692 82.9775 25.5367C83.5186 25.3765 83.8291 25.3541 84.2595 25.1281C85.8472 24.345 87.2594 23.4283 88.4299 22.1327C89.2362 21.295 89.9032 20.3347 90.4079 19.288C90.7958 18.3778 91.0446 17.4139 91.1451 16.4291C91.3203 15.0867 91.2643 13.7232 90.9758 12.3996C90.776 11.4778 90.4278 10.5945 89.9452 9.78376C89.3763 8.8246 88.6777 7.9496 87.8716 7.17964C87.1191 6.52073 86.2991 5.94239 85.425 5.45632C84.2778 4.89675 83.0407 4.54504 81.7706 4.41891L74.4104 4.34415Z" fill="#2F8004"/>
<path fill-rule="evenodd" clip-rule="evenodd" d="M118.579 0.792464V4.46795H102.158V8.72062H115.146V12.4182H102.213V25.7124H118.454V29.1845H98.5475V0.792464H118.579Z" fill="#2F8004"/>
<path fill-rule="evenodd" clip-rule="evenodd" d="M142.093 22.9972C140.186 24.3875 137.946 25.2509 135.6 25.5021C133.234 25.5944 130.888 25.0149 128.837 23.8314C127.245 22.7356 125.941 21.2705 125.039 19.5612C124.306 18.1558 123.868 16.616 123.75 15.0352C123.74 13.2373 124.139 11.4603 124.92 9.84103C125.935 7.97987 127.426 6.42023 129.238 5.31966C130.881 4.26 132.797 3.70043 134.753 3.71087C137.374 3.80325 139.916 4.6386 142.081 6.11883L144.042 3.40714C141.455 1.185 138.152 -0.0242049 134.742 0.000367256C132.093 -0.00659309 129.501 0.746926 127.27 2.17464C124.89 3.62914 122.941 5.68887 121.618 8.14576C120.547 10.3364 120.007 12.7465 120.042 15.1848C120.183 17.3146 120.765 19.3919 121.752 21.2846C122.959 23.5721 124.712 25.5254 126.857 26.9706C129.545 28.5549 132.632 29.3318 135.751 29.2091C138.811 29.0817 141.714 27.8223 143.897 25.675L142.093 22.9972Z" fill="#2F8004"/>
<path fill-rule="evenodd" clip-rule="evenodd" d="M174 14.547C174 6.51599 167.489 0.00627302 159.458 0.00627302C151.427 0.00627302 144.917 6.51599 144.917 14.547C144.917 22.5779 151.427 29.0888 159.458 29.0888C167.489 29.0888 174 22.5779 174 14.547ZM170.663 14.547C170.663 8.35847 165.647 3.34176 159.458 3.34176C153.27 3.34176 148.253 8.35847 148.253 14.547C148.253 20.7353 153.27 25.7522 159.458 25.7522C165.647 25.7522 170.663 20.7353 170.663 14.547Z" fill="#2F8004"/>
<path fill-rule="evenodd" clip-rule="evenodd" d="M0.335139 36.6407V42.1083H3.71987C4.33322 41.9274 4.76888 41.3828 4.8099 40.7449C4.85082 40.107 4.50259 39.5172 3.91729 39.2588C4.37762 38.9248 4.59613 38.3487 4.47464 37.7927C4.35431 37.2364 3.92435 36.8066 3.36584 36.6945L0.335139 36.6407ZM1.27573 41.0943H3.17665C3.45464 41.0007 3.64162 40.7391 3.64046 40.4447C3.6393 40.1514 3.4558 39.8944 3.17665 39.8034H1.27573V41.0943ZM1.30959 37.6245V38.9435H2.95929C3.26544 38.8255 3.44409 38.5054 3.38461 38.1816C3.32376 37.8592 3.0657 37.6245 2.73625 37.6245H1.30959Z" fill="#335120"/>
<path fill-rule="evenodd" clip-rule="evenodd" d="M14.7708 36.6687V42.1469H19.0363V41.0779H16.0279V39.836H18.5818V38.9668H15.9204V37.6582H18.5818V36.6687H14.7708Z" fill="#335120"/>
<path fill-rule="evenodd" clip-rule="evenodd" d="M28.6118 36.6091H33.0886V37.6899H31.3479V42.1364H30.2193V37.6899H28.6118V36.6091Z" fill="#335120"/>
<path fill-rule="evenodd" clip-rule="evenodd" d="M42.6185 36.6091H47.0955V37.6899H45.3546V42.1364H44.2261V37.6899H42.6185V36.6091Z" fill="#335120"/>
<path fill-rule="evenodd" clip-rule="evenodd" d="M56.9617 36.6687V42.1469H61.2272V41.0779H58.2188V39.836H60.7727V38.9668H58.1114V37.6582H60.7727V36.6687H56.9617Z" fill="#335120"/>
<path fill-rule="evenodd" clip-rule="evenodd" d="M74.5177 40.0358L75.921 42.0756H74.574L73.4852 40.3606H72.305V42.0312H71.1695V36.671H74.2315C75.0412 36.7587 75.6768 37.4013 75.7586 38.211C75.8391 39.0193 75.2936 39.7903 74.5177 40.0358ZM72.1906 37.6186V39.4492H73.8835C74.3168 39.3453 74.6159 38.9505 74.6008 38.5054C74.5857 38.0602 74.2853 37.6934 73.846 37.6186H72.1906Z" fill="#335120"/>
<path fill-rule="evenodd" clip-rule="evenodd" d="M100.13 40.4097H98.4668V42.1026H97.4132V36.7481H100.07C100.937 36.9036 101.578 37.6455 101.605 38.5264C101.633 39.4073 100.987 40.2005 100.13 40.4097ZM98.3595 39.3266H99.6271C100.036 39.2414 100.32 38.8687 100.292 38.4516C100.264 38.0357 99.9822 37.7084 99.5651 37.6793H98.3595V39.3266Z" fill="#2F8004"/>
<path fill-rule="evenodd" clip-rule="evenodd" d="M111.463 42.1131H115.455V41.0779H112.557V36.7552H111.463V42.1131Z" fill="#2F8004"/>
<path fill-rule="evenodd" clip-rule="evenodd" d="M127.194 36.7553H128.152L130.593 42.1445H129.236L128.774 40.9483H126.588L126.03 42.1445H124.707L124.818 41.9051L127.194 36.7553ZM127.616 38.004L128.578 39.8862H126.827L127.616 38.004Z" fill="#2F8004"/>
<path fill-rule="evenodd" clip-rule="evenodd" d="M144.931 41.1936L144.095 40.4949C143.672 41.065 142.939 41.3139 142.256 41.1188C141.573 40.9225 141.083 40.3244 141.026 39.6164C140.97 38.9084 141.358 38.2389 142 37.9363C142.644 37.6349 143.408 37.7646 143.916 38.26L144.84 37.4328C144.031 36.5297 142.743 36.226 141.616 36.6735C140.487 37.1208 139.758 38.2237 139.787 39.4364C139.818 40.6503 140.601 41.7158 141.749 42.1072C142.897 42.4997 144.166 42.1352 144.931 41.1936Z" fill="#2F8004"/>
<path fill-rule="evenodd" clip-rule="evenodd" d="M154.742 42.071H158.936V41.1059H155.895V39.9096H158.595V38.8897H155.993V37.7272H158.936V36.5753H154.742V42.071Z" fill="#2F8004"/>
<path fill-rule="evenodd" clip-rule="evenodd" d="M171.013 40.0264C171.2 40.0276 171.377 40.1106 171.498 40.2554C171.618 40.3991 171.668 40.5896 171.634 40.7742C171.563 40.9927 171.402 41.1702 171.19 41.2602C170.98 41.3502 170.739 41.3443 170.532 41.245C170.111 41.0709 169.696 40.8805 169.289 40.6737C169.113 40.6258 168.925 40.6959 168.823 40.8478C168.72 40.9985 168.723 41.1947 168.833 41.3419C169.223 41.8326 169.781 42.161 170.399 42.2649C171.046 42.3818 171.711 42.2427 172.257 41.8782C172.704 41.5663 172.944 41.0346 172.88 40.4937C172.847 39.8827 172.467 39.3453 171.903 39.1105C171.457 38.9072 170.986 38.76 170.502 38.6759C170.247 38.6666 170.041 38.468 170.021 38.2144C170 37.9598 170.242 37.7226 170.493 37.6734C170.995 37.6221 171.502 37.7366 171.934 37.9994C172.155 38.1139 172.426 38.0461 172.568 37.8417C172.709 37.6372 172.701 37.3826 172.516 37.2167C171.756 36.4117 170.542 36.2388 169.587 36.7984C169.133 37.0964 168.85 37.594 168.828 38.1374C168.807 38.6794 169.045 39.1969 169.475 39.5288C169.934 39.829 170.465 40.0007 171.013 40.0264Z" fill="#2F8004"/>
</svg>
