<?xml version="1.0" encoding="UTF-8" standalone="no"?>
<!DOCTYPE svg PUBLIC "-//W3C//DTD SVG 1.1//EN" "http://www.w3.org/Graphics/SVG/1.1/DTD/svg11.dtd">
<svg width="100%" height="100%" viewBox="0 0 128 128" version="1.1" xmlns="http://www.w3.org/2000/svg" xmlns:xlink="http://www.w3.org/1999/xlink" xml:space="preserve" xmlns:serif="http://www.serif.com/" style="fill-rule:evenodd;clip-rule:evenodd;stroke-linejoin:round;stroke-miterlimit:2;">
    <g transform="matrix(1.031746,0,0,1.035857,9.227513,-4.589641)">
        <path d="M91.195,4.431C97.54,4.431 103.625,6.941 108.111,11.41C112.598,15.878 115.118,21.939 115.118,28.258L115.118,104.172C115.118,110.492 112.598,116.553 108.111,121.021C103.625,125.49 97.54,128 91.195,128L14.979,128C8.634,128 2.549,125.49 -1.937,121.021C-6.423,116.553 -8.944,110.492 -8.944,104.172L-8.944,28.258C-8.944,21.939 -6.423,15.878 -1.937,11.41C2.549,6.941 8.634,4.431 14.979,4.431L91.195,4.431Z"/>
    </g>
    <g transform="matrix(0.017863,0,0,0.017863,64,64)">
        <g transform="matrix(1,0,0,1,-3009,-1438.5)">
            <clipPath id="_clip1">
                <rect x="0" y="0" width="6018" height="2877"/>
            </clipPath>
            <g clip-path="url(#_clip1)">
                <path d="M2918.19,2630.23L4859.1,2679.06C4921.59,2680.64 4970.85,2626.34 4963.11,2564.41L4869.79,1817.99C4862.35,1758.47 4805.34,1718.16 4746.62,1730.91L2868.54,2138.87C2817.6,2149.94 2783.16,2197.49 2788.61,2249.25L2819.1,2538.88C2824.47,2589.85 2866.87,2628.93 2918.19,2630.23Z" style="fill:white;fill-rule:nonzero;"/>
                <path d="M3099.81,246.777L1158.9,197.935C1096.4,196.362 1047.15,250.659 1054.89,312.584L1148.21,1059.01C1155.65,1118.53 1212.66,1158.84 1271.38,1146.09L3149.46,738.129C3200.4,727.065 3234.84,679.507 3229.39,627.752L3198.9,338.122C3193.53,287.156 3151.13,248.068 3099.81,246.777Z" style="fill:white;fill-rule:nonzero;"/>
                <path d="M5061.04,89.731L5305.48,5.286C5360.85,-13.844 5419.56,20.732 5432.72,80.22L6015.33,2714.2C6032.51,2791.83 5963.93,2860.99 5890.99,2839.58L5425.86,2703.09C5388.67,2692.19 5361.04,2659.53 5355.01,2619.36L4993.11,206.323C4985.46,155.377 5014.31,105.875 5061.04,89.731Z" style="fill:white;fill-rule:nonzero;"/>
                <path d="M956.961,2787.27L712.524,2871.71C657.151,2890.85 598.44,2856.27 585.282,2796.78L2.668,162.806C-14.506,85.165 54.07,16.012 127.011,37.416L592.145,173.903C629.329,184.814 656.957,217.472 662.982,257.634L1024.89,2670.67C1032.54,2721.62 1003.69,2771.13 956.961,2787.27Z" style="fill:white;fill-rule:nonzero;"/>
                <path d="M4692.38,1380.45L3740.07,1580.46C3680.77,1592.91 3623.7,1551.43 3617.37,1491.27L3495.02,329.276C3488.81,270.213 3534.23,218.347 3593.69,216.609L4534.02,189.12C4586.29,187.593 4631.29,225.69 4638.31,277.418L4772.62,1266.89C4779.82,1319.89 4744.81,1369.44 4692.38,1380.45Z" style="fill:white;fill-rule:nonzero;"/>
                <path d="M1325.62,1496.49L2277.93,1296.48C2337.23,1284.02 2394.3,1325.51 2400.63,1385.67L2522.98,2547.66C2529.19,2606.72 2483.77,2658.59 2424.31,2660.33L1483.98,2687.82C1431.71,2689.35 1386.71,2651.25 1379.69,2599.52L1245.38,1610.05C1238.18,1557.05 1273.19,1507.5 1325.62,1496.49Z" style="fill:white;fill-rule:nonzero;"/>
            </g>
        </g>
    </g>
</svg>
