<svg width="19" height="20" viewBox="0 0 19 20" fill="none" xmlns="http://www.w3.org/2000/svg">
<path d="M7.75384 10.0636C8.26672 10.3602 8.58257 10.9077 8.58257 11.5002V19.5783C8.58257 19.8553 8.31756 20.0578 8.07771 19.9192L1.00971 15.8804C0.387076 15.5209 0.00109959 14.8537 0 14.1341V6.05635C0.000314592 5.83205 0.247974 5.72245 0.442142 5.83475L7.75384 10.0636Z" fill="currentColor"/>
<path d="M17.7327 5.83478C17.9269 5.72247 18.1745 5.83204 18.1749 6.05635V14.1341C18.1738 14.8539 17.7881 15.5209 17.1651 15.8804L10.0971 19.9192C9.85722 20.0578 9.59228 19.8554 9.59228 19.5783V11.5011C9.59228 10.9087 9.90808 10.3612 10.4209 10.0645L17.7327 5.83478Z" fill="currentColor"/>
<path d="M8.07771 0.270217C8.70156 -0.0901616 9.47322 -0.0899831 10.0971 0.270217L17.1651 4.30907C17.451 4.47399 17.391 4.86649 17.1053 5.03171L9.91838 9.18861C9.40431 9.48595 8.77055 9.48595 8.25648 9.18862L1.06953 5.03171C0.783842 4.86647 0.723879 4.47406 1.00971 4.30907L8.07771 0.270217Z" fill="currentColor"/>
</svg>
