<?xml version="1.0" encoding="UTF-8" standalone="no"?>
<!DOCTYPE svg PUBLIC "-//W3C//DTD SVG 1.1//EN" "http://www.w3.org/Graphics/SVG/1.1/DTD/svg11.dtd">
<svg width="100%" height="100%" viewBox="0 0 19 21" version="1.1" xmlns="http://www.w3.org/2000/svg" xmlns:xlink="http://www.w3.org/1999/xlink" xml:space="preserve" xmlns:serif="http://www.serif.com/" style="fill-rule:evenodd;clip-rule:evenodd;stroke-linejoin:round;stroke-miterlimit:2;">
    <g transform="matrix(0.1875,0,0,0.1875,187.69416,-208.343907)">
        <g transform="matrix(5.333333,0,0,5.333333,-1014.368852,1105.403339)">
            <path d="M21,16L21,8C20.999,7.287 20.617,6.626 20,6.27L13,2.27C12.382,1.913 11.618,1.913 11,2.27L4,6.27C3.383,6.626 3.001,7.287 3,8L3,16C3.001,16.713 3.383,17.374 4,17.73L11,21.73C11.618,22.087 12.382,22.087 13,21.73L20,17.73C20.617,17.374 20.999,16.713 21,16Z" style="fill-rule:nonzero;"/>
        </g>
        <g transform="matrix(5.333333,0,0,5.333333,-1014.368852,1105.403339)">
            <path d="M3.27,6.96L12,12.01L20.73,6.96" style="fill-rule:nonzero;"/>
        </g>
        <g transform="matrix(5.333333,0,0,5.333333,-1014.368852,1105.403339)">
            <path d="M12,22.08L12,12" style="fill:none;fill-rule:nonzero;"/>
        </g>
    </g>
</svg>
