<svg viewBox="0 0 18 22" fill="none" xmlns="http://www.w3.org/2000/svg">
<path d="M8.71091 -7.62939e-06C5.70409 -7.62939e-06 3.26659 2.43749 3.26659 5.44431C3.26659 8.45112 5.70409 10.8886 8.71091 10.8886C11.7177 10.8886 14.1552 8.45112 14.1552 5.44431C14.1552 2.43749 11.7177 -7.62939e-06 8.71091 -7.62939e-06ZM15.2555 13.0664H2.16629C0.971811 13.0664 0 14.0382 0 15.2326V16.0607C0 17.8639 1.02625 19.4231 2.8893 20.4505C4.4393 21.3063 6.50705 21.7773 8.71091 21.7773C12.9063 21.7773 17.4218 19.9883 17.4218 16.0607V15.2326C17.4218 14.0382 16.45 13.0664 15.2555 13.0664Z" fill="currentColor"/>
</svg>
