<svg width="5" height="9" viewBox="0 0 5 9" fill="none" xmlns="http://www.w3.org/2000/svg">
<g clip-path="url(#clip0_237_22)">
<path d="M1.21094 5.2932e-08C1.11683 5.68338e-05 1.02324 0.0190967 0.936521 0.0556641C0.850421 0.0920381 0.773421 0.146145 0.708011 0.212891L0.707031 0.211914C0.574971 0.346297 0.501011 0.527418 0.500981 0.715821C0.500981 0.857096 0.542661 0.993965 0.619141 1.11035L0.707031 1.21973L3.56543 4.125L0.70605 7.0293C0.57408 7.1637 0.500001 7.34581 0.500001 7.53418C0.500111 7.72236 0.57421 7.90283 0.70605 8.03711L0.70703 8.03613C0.77261 8.10327 0.850071 8.15781 0.936521 8.19434C0.980091 8.21272 1.02517 8.22702 1.07129 8.23633L1.21094 8.25L1.35156 8.23633C1.39753 8.227 1.44291 8.21268 1.48633 8.19434L1.60937 8.12695C1.64823 8.10041 1.68481 8.07004 1.71777 8.03613L4.59766 5.11035C4.85574 4.84746 4.99996 4.4934 5 4.125C5 3.75662 4.85568 3.40256 4.59766 3.13965L1.7168 0.212891L1.60937 0.123047L1.48535 0.0556641L1.35156 0.0136719C1.30555 0.0043579 1.25811 5.08698e-08 1.21094 5.2932e-08Z" fill="black"/>
</g>
<defs>
<clipPath id="clip0_237_22">
<rect width="9" height="5" fill="white" transform="translate(5) rotate(90)"/>
</clipPath>
</defs>
</svg>
