<svg width="9" height="5" viewBox="0 0 9 5" fill="none" xmlns="http://www.w3.org/2000/svg">
<path d="M3.3125e-07 3.78906C5.71162e-05 3.88317 0.019097 3.97676 0.0556644 4.06348C0.0920384 4.14958 0.146145 4.22658 0.212891 4.29199L0.211914 4.29297C0.346297 4.42503 0.527418 4.49899 0.715821 4.49902C0.857096 4.49902 0.993965 4.45734 1.11035 4.38086L1.21973 4.29297L4.125 1.43457L7.0293 4.29395L7.03027 4.29395C7.16467 4.42592 7.34581 4.5 7.53418 4.5C7.72236 4.49989 7.90283 4.42579 8.03711 4.29395L8.03613 4.29297C8.10327 4.22739 8.15781 4.14993 8.19434 4.06348C8.21272 4.01991 8.22702 3.97483 8.23633 3.92871L8.25 3.78906L8.23633 3.64844C8.227 3.60247 8.21268 3.55709 8.19434 3.51367L8.12695 3.39063C8.10041 3.35177 8.07004 3.31519 8.03613 3.28223L5.11035 0.402344C4.84746 0.144259 4.4934 4.224e-05 4.125 3.60619e-07C3.75662 3.92824e-07 3.40256 0.144322 3.13965 0.402344L3.13965 0.403321L0.212891 3.2832L0.123047 3.39063L0.0556644 3.51465L0.0136722 3.64844C0.00435817 3.69445 3.27126e-07 3.74189 3.3125e-07 3.78906Z" fill="black"/>
</svg>
