<?xml version="1.0" encoding="UTF-8" standalone="no"?>
<!DOCTYPE svg PUBLIC "-//W3C//DTD SVG 1.1//EN" "http://www.w3.org/Graphics/SVG/1.1/DTD/svg11.dtd">
<svg width="100%" height="100%" viewBox="0 0 19 18" version="1.1" xmlns="http://www.w3.org/2000/svg" xmlns:xlink="http://www.w3.org/1999/xlink" xml:space="preserve" xmlns:serif="http://www.serif.com/" style="fill-rule:evenodd;clip-rule:evenodd;stroke-linejoin:round;stroke-miterlimit:2;">
    <g transform="matrix(1.719861,-0,0,1.719861,-4.432718,-4.584207)">
        <path d="M12,2.996C12.254,2.996 12.508,3.094 12.707,3.293C13.102,3.688 13.102,4.312 12.707,4.707L9.051,8.281C9.117,7.958 8.881,7.565 8.648,7.352C8.422,7.143 8.079,6.873 7.719,6.945L11.293,3.293C11.488,3.098 11.746,2.996 12,2.996L12,2.996ZM7.719,6.945C7.95,6.897 8.247,6.978 8.648,7.352C9.021,7.698 9.099,8.113 9.051,8.281L7.789,9.516C7.668,9.23 7.5,8.965 7.266,8.734C7.035,8.5 6.77,8.328 6.484,8.211L7.719,6.945ZM5.5,9C5.883,9 6.266,9.145 6.562,9.438C7.152,10.031 7.152,10.969 6.562,11.562C6.473,11.648 6.129,11.855 5.703,12.031C5.281,12.203 4.766,12.375 4.273,12.52C3.707,12.688 3.555,12.715 3.199,12.801C3.285,12.445 3.312,12.293 3.477,11.73C3.625,11.234 3.797,10.719 3.969,10.297C4.145,9.871 4.352,9.527 4.438,9.438C4.734,9.145 5.117,9 5.5,9L5.5,9Z" style="fill-rule:nonzero;"/>
    </g>
</svg>
