<svg width="18" height="18" viewBox="0 0 18 18" fill="none" xmlns="http://www.w3.org/2000/svg">
<path d="M4.02995 11.0097C4.71571 11.0097 5.40147 11.2693 5.93145 11.7939C6.98784 12.8557 6.98784 14.5352 5.93145 15.5969C5.7721 15.7509 5.15617 16.1215 4.39342 16.4367C3.63783 16.7446 2.71573 17.0526 1.83302 17.3122C1.0613 17.5413 0.71943 17.6239 0.318785 17.7183C0.131992 17.7623 -0.0369463 17.5934 0.00698603 17.4066C0.101142 17.0062 0.182835 16.6653 0.407789 15.8977C0.672781 15.0096 0.980747 14.0875 1.28871 13.3319C1.60384 12.5692 1.97447 11.9533 2.12845 11.7939C2.65844 11.2693 3.34419 11.0097 4.02995 11.0097Z" fill="currentColor"/>
<path d="M9.29388 8.43054C9.69882 8.80072 10.1088 9.47453 10.0245 10.0426C10.0198 10.074 10.004 10.1024 9.98142 10.1245L7.76075 12.3026C7.68124 12.3806 7.54799 12.354 7.49977 12.2536C7.29254 11.8221 7.01943 11.4209 6.65873 11.0649C6.30353 10.705 5.90343 10.4271 5.47318 10.2231C5.37191 10.1751 5.34423 10.0408 5.42259 9.96072L7.59797 7.73643C7.62024 7.71365 7.6489 7.69781 7.68039 7.69302C8.30667 7.59778 8.89968 8.066 9.29388 8.43054Z" fill="currentColor"/>
<path d="M17.1925 0.531891C17.8998 1.23913 17.8998 2.3564 17.1925 3.06364L11.142 8.97845C11.0313 9.08668 10.7967 8.98106 10.7613 8.83035C10.6575 8.3886 10.3536 7.94682 10.0527 7.67172C9.75497 7.39627 9.34429 7.0618 8.89191 6.95329C8.74158 6.91723 8.63654 6.68759 8.74468 6.5771L14.6608 0.531877C15.0099 0.182732 15.4719 0.000109293 15.9267 0.000109315C16.3814 0.00011056 16.8362 0.175585 17.1925 0.531891Z" fill="currentColor"/>
</svg>
