<svg viewBox="0 0 52 52" fill="none" xmlns="http://www.w3.org/2000/svg">
<path d="M46.5968 26.6391L48.3004 24.9356C51.6844 21.5515 51.6844 16.0684 48.3004 12.6843L42.1762 6.56017C38.7922 3.17614 33.309 3.17614 29.925 6.56017L25.9866 10.4986V8.66219C25.9866 3.87777 22.1088 0 17.3244 0H8.66219C3.87777 0 0 3.87777 0 8.66219V34.6488V43.311C0 48.0954 3.87777 51.9731 8.66219 51.9731H17.3244H43.311C48.0954 51.9731 51.9731 48.0954 51.9731 43.311V34.6488C51.9731 31.028 49.7498 27.9356 46.5968 26.6391Z" fill="url(#paint0_linear_11_27)"/>
<path d="M17.3244 1.4437C21.3032 1.4437 24.5429 4.68047 24.5429 8.66219V10.4986V13.9837L27.0087 11.5178L30.9471 7.57942C32.31 6.21657 34.1233 5.46584 36.052 5.46584C37.9808 5.46584 39.7941 6.21657 41.157 7.57942L47.2811 13.7036C50.0963 16.5188 50.0963 21.0982 47.2811 23.9134L45.5776 25.617L44.0444 27.1502L46.0511 27.9731C48.771 29.0934 50.5294 31.7123 50.5294 34.6488V43.311C50.5294 47.2927 47.2898 50.5294 43.311 50.5294H17.3244H8.66219C4.68336 50.5294 1.4437 47.2927 1.4437 43.311V34.6488V8.66219C1.4437 4.68047 4.68336 1.4437 8.66219 1.4437H17.3244ZM17.3244 0H8.66219C3.87777 0 0 3.87777 0 8.66219V34.6488V43.311C0 48.0954 3.87777 51.9731 8.66219 51.9731H17.3244H43.311C48.0954 51.9731 51.9731 48.0954 51.9731 43.311V34.6488C51.9731 31.028 49.7498 27.9356 46.5968 26.6391L48.3004 24.9356C51.6844 21.5515 51.6844 16.0684 48.3004 12.6843L42.1762 6.56017C40.4842 4.86815 38.2667 4.02214 36.052 4.02214C33.8374 4.02214 31.617 4.86815 29.9279 6.56017L25.9866 10.4986V8.66219C25.9866 3.87777 22.1088 0 17.3244 0Z" fill="url(#paint1_linear_11_27)"/>
<path d="M48.3005 12.6844L42.1763 6.56024C38.7923 3.17621 33.3091 3.17621 29.9251 6.56024L25.9866 10.4986V43.311C25.9866 48.0377 22.1984 51.8635 17.4948 51.9559C19.7701 52.0021 22.0627 51.1734 23.798 49.4352L48.2976 24.9356C51.6816 21.5516 51.6816 16.0684 48.3005 12.6844Z" fill="url(#paint2_linear_11_27)"/>
<path d="M12.9933 46.1983C15.3853 46.1983 17.3244 44.2592 17.3244 41.8672C17.3244 39.4752 15.3853 37.5361 12.9933 37.5361C10.6013 37.5361 8.66217 39.4752 8.66217 41.8672C8.66217 44.2592 10.6013 46.1983 12.9933 46.1983Z" fill="url(#paint3_linear_11_27)"/>
<defs>
<linearGradient id="paint0_linear_11_27" x1="-0.282964" y1="5.35901" x2="46.6141" y2="52.2561" gradientUnits="userSpaceOnUse">
<stop stop-color="#8480FF" stop-opacity="0.58824"/>
<stop offset="1" stop-color="#8480FF" stop-opacity="0.30196"/>
</linearGradient>
<linearGradient id="paint1_linear_11_27" x1="0" y1="25.9866" x2="51.9731" y2="25.9866" gradientUnits="userSpaceOnUse">
<stop stop-color="#9E99FF" stop-opacity="0.58824"/>
<stop offset="0.493" stop-color="#8480FF" stop-opacity="0"/>
<stop offset="0.997" stop-color="#9E99FF" stop-opacity="0.30196"/>
</linearGradient>
<linearGradient id="paint2_linear_11_27" x1="18.5314" y1="17.9539" x2="36.9068" y2="36.3293" gradientUnits="userSpaceOnUse">
<stop stop-color="#8480FF" stop-opacity="0.58824"/>
<stop offset="1" stop-color="#A7A3FF"/>
</linearGradient>
<linearGradient id="paint3_linear_11_27" x1="9.92974" y1="38.8037" x2="16.0568" y2="44.9308" gradientUnits="userSpaceOnUse">
<stop stop-color="#9E99FF" stop-opacity="0.58824"/>
<stop offset="1" stop-color="#9E99FF" stop-opacity="0.30196"/>
</linearGradient>
</defs>
</svg>
