<svg width="20" height="20" viewBox="0 0 20 20" fill="none" xmlns="http://www.w3.org/2000/svg">
<path fill-rule="evenodd" clip-rule="evenodd" d="M19.8469 8.44797C19.9239 8.94846 19.9639 9.46009 19.9639 9.98194C19.9639 15.491 15.491 19.9639 9.98194 19.9639C4.47284 19.9639 0 15.491 0 9.98194C0 4.47284 4.47284 0 9.98194 0C10.4081 0 10.8278 0.0269281 11.2401 0.078927C11.462 0.106784 11.6561 0.238638 11.7638 0.434563C11.8706 0.629559 11.878 0.865411 11.7833 1.06691C11.67 1.30647 11.6069 1.57482 11.6069 1.8571C11.6069 2.46066 11.8957 2.99737 12.3423 3.33629C12.5577 3.50064 12.659 3.77549 12.6005 4.04106C12.5577 4.23513 12.5355 4.43569 12.5355 4.64276C12.5355 6.18044 13.7834 7.42842 15.3211 7.42842C15.413 7.42842 15.5031 7.42378 15.5932 7.41542C15.8253 7.39313 16.0528 7.48785 16.2005 7.66891C16.5412 8.08862 17.0603 8.35697 17.6425 8.35697C18.0548 8.35697 18.4364 8.22233 18.7447 7.99484C18.9406 7.84998 19.1978 7.81748 19.4235 7.91034C19.6491 8.00319 19.8088 8.20747 19.8469 8.44797ZM14.3926 11.6069C13.7519 11.6069 13.2319 12.1269 13.2319 12.7676C13.2319 13.4083 13.7519 13.9283 14.3926 13.9283C15.0333 13.9283 15.5533 13.4083 15.5533 12.7676C15.5533 12.1269 15.0333 11.6069 14.3926 11.6069ZM7.42842 13.9283C6.78772 13.9283 6.26773 14.4483 6.26773 15.089C6.26773 15.7297 6.78772 16.2497 7.42842 16.2497C8.06912 16.2497 8.58911 15.7297 8.58911 15.089C8.58911 14.4483 8.06912 13.9283 7.42842 13.9283ZM7.65127 3.89992C7.26685 3.89992 6.95486 4.21191 6.95486 4.59633C6.95486 4.98075 7.26685 5.29275 7.65127 5.29275C8.03569 5.29275 8.34769 4.98075 8.34769 4.59633C8.34769 4.21191 8.03569 3.89992 7.65127 3.89992ZM10.2141 11.6069C9.82965 11.6069 9.51766 11.9189 9.51766 12.3033C9.51766 12.6877 9.82965 12.9997 10.2141 12.9997C10.5985 12.9997 10.9105 12.6877 10.9105 12.3033C10.9105 11.9189 10.5985 11.6069 10.2141 11.6069ZM4.8749 8.82125C4.49048 8.82125 4.17849 9.13324 4.17849 9.51766C4.17849 9.90208 4.49048 10.2141 4.8749 10.2141C5.25932 10.2141 5.57131 9.90208 5.57131 9.51766C5.57131 9.13324 5.25932 8.82125 4.8749 8.82125ZM9.28552 6.732C8.64482 6.732 8.12483 7.25199 8.12483 7.89269C8.12483 8.5334 8.64482 9.05339 9.28552 9.05339C9.92622 9.05339 10.4462 8.5334 10.4462 7.89269C10.4462 7.25199 9.92622 6.732 9.28552 6.732Z" fill="currentColor"/>
</svg>
