<svg xmlns="http://www.w3.org/2000/svg" viewBox="0 0 152 152" fill="none" aria-hidden="true">
  <path
    d="M141.547 98.3721C146.809 98.3723 151 102.489 151 107.791V140.581C151 145.883 146.809 150 141.547 150H9.45312C4.19107 150 0 145.883 0 140.581V107.791C0 102.489 4.19107 98.3723 9.45312 98.3721C14.7153 98.3721 18.9072 102.489 18.9072 107.791V129.163C18.9072 130.268 19.8027 131.163 20.9072 131.163H130.093C131.197 131.163 132.093 130.268 132.093 129.163V107.791C132.093 102.489 136.285 98.3721 141.547 98.3721Z"
    fill="currentColor"
  />
  <path
    d="M75.5 0C80.7622 0 84.9531 4.11652 84.9531 9.41895V66.3782C84.9531 67.2673 86.0267 67.7143 86.6577 67.0878L93.6289 60.166C97.2657 56.3857 103.138 56.5764 106.763 60.0312C106.786 60.0523 106.808 60.0755 106.831 60.0967C106.855 60.1203 106.881 60.1421 106.905 60.166C110.781 63.8415 110.534 69.8352 106.905 73.4385L82.1377 98.0312C80.299 99.8569 77.8367 100.813 75.5 100.813C73.1633 100.813 70.701 99.8569 68.8623 98.0312L44.0947 73.4385C40.2511 69.7923 40.4631 63.8657 44.0088 60.2539C47.6855 56.3319 53.7317 56.5523 57.3711 60.166L64.3423 67.0878C64.9733 67.7143 66.0469 67.2673 66.0469 66.3782V9.41895C66.0469 4.11652 70.2378 0 75.5 0Z"
    fill="currentColor"
  />
</svg>
