<svg width="48" height="48" viewBox="0 0 48 48" fill="none" xmlns="http://www.w3.org/2000/svg">
<path d="M24 48C21.425 48 19.351 46.111 16.24 43L5 31.76C1.889 28.649 0 26.575 0 24C0 21.425 1.889 19.351 5 16.24L16.24 5C19.35 1.889 21.425 0 24 0C26.575 0 28.649 1.889 31.76 5L43 16.24C46.111 19.351 48 21.425 48 24C48 26.575 46.111 28.649 43 31.76L31.76 43C28.649 46.111 26.575 48 24 48ZM21.688 34.589C21.688 35.872 22.708 36.857 23.991 36.857C25.309 36.857 26.311 35.873 26.311 34.589C26.311 33.305 25.309 32.321 23.991 32.321C22.708 32.321 21.688 33.306 21.688 34.589ZM22.286 26.661C22.321 27.768 22.919 28.454 23.991 28.454C25.081 28.454 25.679 27.768 25.714 26.661L25.925 13.02C25.925 12.95 25.925 12.879 25.925 12.827C25.925 11.649 25.134 10.893 24.009 10.893C22.866 10.893 22.075 11.649 22.075 12.827C22.075 12.88 22.075 12.95 22.075 13.02L22.286 26.661Z" fill="currentColor"/>
</svg>
