<svg width="11" height="19" viewBox="0 0 11 19" fill="none" xmlns="http://www.w3.org/2000/svg">
<path d="M7.325 0C6.09837 0 4.92199 0.487275 4.05463 1.35463C3.18728 2.22199 2.7 3.39837 2.7 4.625V7.2H0.225C0.101 7.2 0 7.3 0 7.425V10.825C0 10.949 0.0999999 11.05 0.225 11.05H2.7V18.025C2.7 18.149 2.8 18.25 2.925 18.25H6.325C6.449 18.25 6.55 18.15 6.55 18.025V11.05H9.047C9.15 11.05 9.24 10.98 9.265 10.88L10.115 7.48C10.1234 7.44682 10.1241 7.41217 10.117 7.37869C10.11 7.34521 10.0954 7.31377 10.0744 7.28678C10.0533 7.25978 10.0264 7.23793 9.99571 7.22289C9.96497 7.20786 9.93121 7.20003 9.897 7.2H6.55V4.625C6.55 4.52323 6.57005 4.42245 6.60899 4.32842C6.64794 4.23439 6.70503 4.14896 6.77699 4.07699C6.84896 4.00503 6.93439 3.94794 7.02842 3.90899C7.12245 3.87005 7.22323 3.85 7.325 3.85H9.925C10.049 3.85 10.15 3.75 10.15 3.625V0.225C10.15 0.101 10.05 0 9.925 0H7.325Z" fill="black"/>
</svg>
