<svg width="18" height="18" viewBox="0 0 18 18" fill="none" xmlns="http://www.w3.org/2000/svg">
<path d="M12.2816 0.170683C12.3754 0.0282614 12.5527 -0.0368126 12.713 0.0213284C13.1468 0.178677 13.6449 0.358815 14.011 0.472492C14.5808 0.649794 15.5018 0.953693 16.3075 1.77717C17.113 2.60063 17.8416 3.9461 17.8417 6.45241V7.23326C17.8417 7.70488 17.4775 8.06991 17.0059 8.07001H14.805C14.6092 8.07001 14.4505 7.9113 14.4505 7.71552V6.14769C14.4505 6.00548 14.3347 5.89068 14.1925 5.89068C14.0627 5.89068 13.9561 5.98643 13.9384 6.1114C13.9384 9.41535 13.9387 13.4496 13.9394 16.7113C13.9394 17.183 13.5743 17.548 13.1027 17.548H4.73999C4.26775 17.548 3.90323 17.183 3.90323 16.7113C3.9034 13.4617 3.89539 9.39724 3.89539 6.14769C3.89539 6.00564 3.78036 5.89095 3.63837 5.89068C3.49616 5.89068 3.38038 6.00548 3.38038 6.14769V7.71552C3.38038 7.9113 3.22167 8.07001 3.02588 8.07001H0.836758C0.364541 8.06999 0 7.70492 0 7.23326V6.45241C8.74976e-05 3.94603 0.729616 2.60062 1.5352 1.77717C2.34086 0.953668 3.26181 0.649792 3.83162 0.472492C4.19606 0.358775 4.69512 0.178549 5.1297 0.0211664C5.28998 -0.0368801 5.46727 0.0282067 5.561 0.170595C6.05981 0.928335 6.98597 1.89768 8.92084 1.89782C10.856 1.89782 11.7826 0.928464 12.2816 0.170683Z" fill="currentColor"/>
</svg>
