<?xml version="1.0" encoding="UTF-8" standalone="no"?>
<!DOCTYPE svg PUBLIC "-//W3C//DTD SVG 1.1//EN" "http://www.w3.org/Graphics/SVG/1.1/DTD/svg11.dtd">
<svg width="100%" height="100%" viewBox="0 0 19 18" version="1.1" xmlns="http://www.w3.org/2000/svg" xmlns:xlink="http://www.w3.org/1999/xlink" xml:space="preserve" xmlns:serif="http://www.serif.com/" style="fill-rule:evenodd;clip-rule:evenodd;stroke-linejoin:round;stroke-miterlimit:2;">
    <g transform="matrix(0.1875,0,0,0.1875,187.69416,-210.343907)">
        <g transform="matrix(2.960263,0,0,2.960263,-1021.415171,1098.21834)">
            <path d="M17.695,8.385C18.512,9.772 20.133,11.93 24,11.93C27.867,11.93 29.488,9.772 30.305,8.385C31.172,8.698 32.327,9.124 33.129,9.373C34.151,9.691 35.803,10.236 37.248,11.713C38.693,13.19 40,15.604 40,20.1L40,21.5C40,22.346 39.346,23 38.5,23L33,23C33,23 32.999,19.456 32.999,19.183C32.998,18.91 32.998,18.91 32.997,19.183C32.996,19.456 33,38.5 33,38.5C33,39.346 32.346,40 31.5,40L16.5,40C15.653,40 15,39.346 15,38.5C15,38.5 15.001,18.972 15.001,18.979C15.002,18.991 15.003,23 15.003,23L9.5,23C8.653,23 8,22.346 8,21.5L8,20.1C8,15.604 9.307,13.19 10.752,11.713C12.197,10.236 13.849,9.691 14.871,9.373C15.669,9.124 16.827,8.698 17.695,8.385Z" style="fill-rule:nonzero;"/>
        </g>
    </g>
</svg>
