<svg xmlns="http://www.w3.org/2000/svg" viewBox="0 0 36 36" fill="none" aria-hidden="true">
  <path
    d="M30.5 0H5.5C2.468 0 0 2.468 0 5.5V30.5C0 33.532 2.468 36 5.5 36H30.5C33.532 36 36 33.532 36 30.5V5.5C36 2.468 33.532 0 30.5 0ZM12 28C12 28.553 11.553 29 11 29H7.99999C7.447 29 7 28.553 7 28V15C7 14.447 7.447 14 7.99999 14H11C11.553 14 12 14.447 12 15V28ZM9.49999 12C8.11899 12 7 10.881 7 9.49999C7 8.11899 8.11899 7 9.49999 7C10.881 7 12 8.11899 12 9.49999C12 10.881 10.881 12 9.49999 12ZM29 28C29 28.553 28.553 29 28 29H25C24.447 29 24 28.553 24 28V20.5C24 19.121 22.879 18 21.5 18C20.121 18 19 19.121 19 20.5V28C19 28.553 18.553 29 18 29H15C14.447 29 14 28.553 14 28V15C14 14.447 14.447 14 15 14H18C18.553 14 19 14.447 19 15V15.541C20.063 14.586 21.462 14 23 14C26.309 14 29 16.691 29 20V28Z"
    fill="currentColor"
  />
</svg>
