<svg width="16" height="19" viewBox="0 0 16 19" fill="none" xmlns="http://www.w3.org/2000/svg">
<path fill-rule="evenodd" clip-rule="evenodd" d="M8.0004 0C9.58248 8.57024e-05 11.1293 0.46968 12.4447 1.34863C13.7601 2.22763 14.7855 3.47685 15.391 4.93848C15.9965 6.40019 16.1547 8.00878 15.8461 9.56055C15.5375 11.1124 14.7754 12.5384 13.6566 13.6572L9.41348 17.9004C9.22802 18.0859 9.00738 18.2335 8.76504 18.334C8.52266 18.4344 8.26274 18.4863 8.0004 18.4863C7.73803 18.4863 7.47814 18.4344 7.23575 18.334C6.99338 18.2335 6.77279 18.0859 6.58731 17.9004L2.34317 13.6572C1.22439 12.5384 0.462365 11.1124 0.153716 9.56055C-0.154866 8.00879 0.0033133 6.40018 0.608795 4.93848C1.21426 3.47686 2.23969 2.22763 3.55508 1.34863C4.87067 0.4696 6.41816 0 8.0004 0ZM8.0004 5C7.20475 5 6.44094 5.3163 5.87833 5.87891C5.31589 6.44149 5.0004 7.20448 5.0004 8C5.0004 8.79552 5.31589 9.55851 5.87833 10.1211C6.44094 10.6837 7.20475 11 8.0004 11C8.79589 10.9999 9.55898 10.6836 10.1215 10.1211C10.684 9.55851 11.0004 8.79555 11.0004 8C11.0004 7.20445 10.684 6.44149 10.1215 5.87891C9.55898 5.3164 8.79589 5.00012 8.0004 5Z" fill="black"/>
</svg>
