<svg viewBox="0 0 51 52" fill="none" xmlns="http://www.w3.org/2000/svg">
<path d="M49.488 12.7361L46.9802 15.2438C47.8315 17.3605 48.3147 19.6612 48.3147 22.0769C48.3147 28.4268 43.1611 33.5804 36.8112 33.5804H23.007C22.5928 33.5804 22.2017 33.5114 21.8336 33.4193C21.8336 33.4193 21.8336 33.3963 21.8106 33.3963C21.4425 33.3043 21.0744 33.1433 20.7293 32.9592C20.7293 32.9592 20.7063 32.9362 20.6833 32.9362C20.0161 32.5451 19.4409 31.9699 19.0498 31.3027C19.0498 31.2797 19.0268 31.2567 19.0268 31.2567C18.8427 30.9116 18.6817 30.5435 18.5896 30.1754C18.5896 30.1524 18.5666 30.1524 18.5666 30.1524C18.4746 29.7842 18.4056 29.3931 18.4056 28.979V15.1748C18.4056 8.82489 23.5591 3.67132 29.9091 3.67132C31.6806 3.67132 33.4061 3.94741 35.0396 4.40755L38.0996 1.34762C39.8941 -0.446927 42.816 -0.446927 44.6105 1.34762L49.488 6.2251C51.2826 8.01964 51.2826 10.9415 49.488 12.7361Z" fill="url(#paint0_linear_11_37)"/>
<path d="M41.355 1.15206C42.2799 1.15206 43.1473 1.51097 43.7961 2.16206L48.6736 7.03954C50.0195 8.38545 50.0195 10.578 48.6736 11.9239L46.1658 14.4317L45.6297 14.9678L45.9127 15.6741C46.7433 17.7378 47.1643 19.8912 47.1643 22.0769C47.1643 27.7849 42.5192 32.43 36.8112 32.43H23.007C22.9932 32.43 22.9794 32.43 22.9656 32.43L22.961 32.246H21.9671C21.7945 32.1931 21.6058 32.1149 21.3988 32.0113L21.1595 31.7859H21.0215C20.6994 31.5558 20.4118 31.2659 20.184 30.9415L20.1771 30.7804L19.9678 30.5711C19.8665 30.3663 19.7883 30.18 19.7377 30.0097L19.717 29.002H19.5559C19.5559 28.9951 19.5559 28.9859 19.5559 28.979V15.1748C19.5559 9.46678 24.201 4.82167 29.9091 4.82167C31.4735 4.82167 33.0955 5.05404 34.7267 5.51418L35.3755 5.69594L35.8518 5.21969L38.9117 2.15976C39.5628 1.51097 40.4302 1.15206 41.355 1.15206ZM41.355 0.00170898C40.1771 0.00170898 38.9968 0.450345 38.0996 1.34762L35.0396 4.40755C33.4061 3.94741 31.6806 3.67132 29.9091 3.67132C23.5591 3.67132 18.4056 8.82489 18.4056 15.1748V28.979C18.4056 29.3931 18.4746 29.7842 18.5666 30.1524C18.5666 30.1524 18.5896 30.1524 18.5896 30.1754C18.6817 30.5435 18.8427 30.9116 19.0268 31.2567C19.0268 31.2567 19.0498 31.2797 19.0498 31.3027C19.4409 31.9699 20.0161 32.5451 20.6833 32.9362C20.7063 32.9362 20.7293 32.9592 20.7293 32.9592C21.0744 33.1433 21.4425 33.3043 21.8106 33.3963C21.8336 33.3963 21.8336 33.4193 21.8336 33.4193C22.2017 33.5114 22.5928 33.5804 23.007 33.5804H36.8112C43.1611 33.5804 48.3147 28.4268 48.3147 22.0769C48.3147 19.6612 47.8315 17.3605 46.9802 15.2438L49.488 12.7361C51.2826 10.9415 51.2826 8.01964 49.488 6.2251L44.6105 1.34762C43.7133 0.450345 42.5353 0.00170898 41.355 0.00170898Z" fill="url(#paint1_linear_11_37)"/>
<path d="M39.1119 46.2341C39.1119 49.4091 36.5351 51.9859 33.3601 51.9859C31.4735 51.9859 29.8401 51.0656 28.7587 49.6852C14.1723 49.6852 2.3007 37.8136 2.3007 23.2272C0.920279 22.1458 0 20.5123 0 18.6258C0 15.4508 2.57678 12.874 5.75175 12.874C8.92671 12.874 11.5035 15.4508 11.5035 18.6258C11.5035 20.5123 10.5832 22.1458 9.20279 23.2272C9.20279 34.0174 17.9685 42.7831 28.7587 42.7831C29.8401 41.4027 31.4735 40.4824 33.3601 40.4824C36.5351 40.4824 39.1119 43.0592 39.1119 46.2341Z" fill="url(#paint2_linear_11_37)"/>
<path d="M5.75175 14.0244C8.28942 14.0244 10.3531 16.0881 10.3531 18.6258C10.3531 20.0476 9.67444 21.3958 8.49418 22.3207L8.05244 22.6681V23.2272C8.05244 34.6455 17.3404 43.9334 28.7587 43.9334H29.3178L29.6629 43.4917C30.5878 42.3092 31.936 41.6327 33.3578 41.6327C35.8955 41.6327 37.9592 43.6965 37.9592 46.2341C37.9592 48.7718 35.8955 50.8355 33.3578 50.8355C31.936 50.8355 30.5878 50.1568 29.6629 48.9766L29.3178 48.5348H28.7587C14.805 48.5348 3.45105 37.1809 3.45105 23.2272V22.6681L3.00931 22.323C1.82905 21.3958 1.15035 20.0476 1.15035 18.6258C1.15035 16.0881 3.21408 14.0244 5.75175 14.0244ZM5.75175 12.874C2.57678 12.874 0 15.4508 0 18.6258C0 20.5123 0.920279 22.1458 2.3007 23.2272C2.3007 37.8136 14.1723 49.6852 28.7587 49.6852C29.8401 51.0656 31.4735 51.9859 33.3601 51.9859C36.5351 51.9859 39.1119 49.4091 39.1119 46.2341C39.1119 43.0592 36.5351 40.4824 33.3601 40.4824C31.4735 40.4824 29.8401 41.4027 28.7587 42.7831C17.9685 42.7831 9.20279 34.0174 9.20279 23.2272C10.5832 22.1458 11.5035 20.5123 11.5035 18.6258C11.5035 15.4508 8.92671 12.874 5.75175 12.874Z" fill="url(#paint3_linear_11_37)"/>
<path d="M33.36 15.1748C31.4551 15.1748 29.909 16.7209 29.909 18.6259C29.909 18.688 29.9228 18.7455 29.9274 18.8053L18.5757 30.157C18.9968 31.7467 20.2391 32.9891 21.8289 33.4101L33.1806 22.0585C33.2404 22.0631 33.2979 22.0769 33.36 22.0769C35.265 22.0769 36.8111 20.5308 36.8111 18.6259C36.8111 16.7209 35.265 15.1748 33.36 15.1748Z" fill="url(#paint4_linear_11_37)"/>
<path d="M49.488 6.22741L44.6083 1.34763C42.8114 -0.449211 39.8987 -0.449211 38.1019 1.34763L35.0374 4.41216C40.4923 5.99274 44.8958 10.0213 46.9872 15.2392L49.4903 12.7361C51.2849 10.9369 51.2849 8.02426 49.488 6.22741Z" fill="url(#paint5_linear_11_37)"/>
<path d="M33.3601 40.4824C31.4689 40.4824 29.8078 41.4073 28.7587 42.8153V42.7831C17.9754 42.7831 9.20279 34.0105 9.20279 23.2272H9.17058C10.5786 22.178 11.5035 20.5169 11.5035 18.6258C11.5035 15.4485 8.92901 12.874 5.75175 12.874C2.57448 12.874 0 15.4485 0 18.6258C0 20.5169 0.924881 22.178 2.33291 23.2272H2.3007C2.3007 37.8159 14.17 49.6852 28.7587 49.6852V49.653C29.8078 51.061 31.4689 51.9859 33.3601 51.9859C36.5374 51.9859 39.1119 49.4114 39.1119 46.2341C39.1119 43.0569 36.5374 40.4824 33.3601 40.4824Z" fill="url(#paint6_linear_11_37)"/>
<defs>
<linearGradient id="paint0_linear_11_37" x1="22.1097" y1="6.70824" x2="45.2777" y2="29.8763" gradientUnits="userSpaceOnUse">
<stop stop-color="#8480FF" stop-opacity="0.61961"/>
<stop offset="1" stop-color="#8480FF" stop-opacity="0.3"/>
</linearGradient>
<linearGradient id="paint1_linear_11_37" x1="22.1097" y1="6.70824" x2="45.2777" y2="29.8763" gradientUnits="userSpaceOnUse">
<stop stop-color="#8480FF" stop-opacity="0.61961"/>
<stop offset="0.493" stop-color="#8480FF" stop-opacity="0"/>
<stop offset="0.997" stop-color="white" stop-opacity="0.3"/>
</linearGradient>
<linearGradient id="paint2_linear_11_37" x1="-1.03071" y1="17.273" x2="34.7129" y2="53.0166" gradientUnits="userSpaceOnUse">
<stop stop-color="#8480FF" stop-opacity="0.61961"/>
<stop offset="1" stop-color="#8480FF" stop-opacity="0.3"/>
</linearGradient>
<linearGradient id="paint3_linear_11_37" x1="-1.03071" y1="17.273" x2="34.7129" y2="53.0166" gradientUnits="userSpaceOnUse">
<stop stop-color="#8480FF" stop-opacity="0.61961"/>
<stop offset="0.493" stop-color="#8480FF" stop-opacity="0"/>
<stop offset="0.997" stop-color="#8480FF" stop-opacity="0.3"/>
</linearGradient>
<linearGradient id="paint4_linear_11_37" x1="25.3421" y1="21.764" x2="30.2219" y2="26.6438" gradientUnits="userSpaceOnUse">
<stop stop-color="#E9E8FF" stop-opacity="0.7"/>
<stop offset="0.519" stop-color="#E9E8FF" stop-opacity="0.45"/>
<stop offset="1" stop-color="#E9E8FF" stop-opacity="0.55"/>
</linearGradient>
<linearGradient id="paint5_linear_11_37" x1="38.1962" y1="1.25331" x2="49.5847" y2="12.6418" gradientUnits="userSpaceOnUse">
<stop stop-color="#8480FF" stop-opacity="0.7"/>
<stop offset="0.519" stop-color="#8480FF" stop-opacity="0.45"/>
<stop offset="1" stop-color="#E9E8FF" stop-opacity="0.55"/>
</linearGradient>
<linearGradient id="paint6_linear_11_37" x1="-1.03071" y1="17.273" x2="34.7129" y2="53.0166" gradientUnits="userSpaceOnUse">
<stop stop-color="#B3B0FF" stop-opacity="0.7"/>
<stop offset="0.519" stop-color="#8480FF" stop-opacity="0.45"/>
<stop offset="1" stop-color="#9996FF" stop-opacity="0.55"/>
</linearGradient>
</defs>
</svg>
