<svg width="18" height="14" viewBox="0 0 18 14" fill="none" xmlns="http://www.w3.org/2000/svg">
<path d="M16 0C16.5304 0 17.039 0.210865 17.4141 0.585938C17.7891 0.96101 18 1.46957 18 2V2.20521C18 2.54537 17.8271 2.86221 17.541 3.04623L9.82617 8.00879C9.58346 8.16501 9.29563 8.25 8.99902 8.25C8.73948 8.25 8.48641 8.18536 8.26465 8.06445L8.17188 8.00879L0.458989 3.04721C0.172912 2.86318 0 2.54635 0 2.2062V2C0 1.46957 0.210865 0.96101 0.585938 0.585938C0.96101 0.210865 1.46957 0 2 0H16Z" fill="black"/>
<path d="M18 12C18 12.5304 17.7891 13.039 17.4141 13.4141C17.039 13.7891 16.5304 14 16 14H2C1.46957 14 0.96101 13.7891 0.585938 13.4141C0.210865 13.039 0 12.5304 0 12V5.45144C0 5.05577 0.437808 4.81686 0.770554 5.03096L7.35938 9.27051C7.84699 9.58443 8.4177 9.75 8.99902 9.75C9.58027 9.75 10.1501 9.58336 10.6377 9.26953L17.2295 5.02889C17.5622 4.81483 18 5.05374 18 5.44939V12Z" fill="black"/>
</svg>
