<svg width="18" height="18" viewBox="0 0 18 18" fill="none" xmlns="http://www.w3.org/2000/svg">
<path d="M0 2C0 1.46957 0.210714 0.960859 0.585786 0.585786C0.960859 0.210714 1.46957 0 2 0H5.28C5.48979 0.000159293 5.69422 0.0662963 5.86436 0.18905C6.03449 0.311804 6.1617 0.484956 6.228 0.684L7.726 5.177C7.8019 5.40534 7.79293 5.65339 7.70072 5.87564C7.60851 6.0979 7.43925 6.27945 7.224 6.387L4.967 7.517C6.07332 9.96554 8.03446 11.9267 10.483 13.033L11.613 10.776C11.7205 10.5607 11.9021 10.3915 12.1244 10.2993C12.3466 10.2071 12.5947 10.1981 12.823 10.274L17.316 11.772C17.5152 11.8383 17.6885 11.9657 17.8112 12.136C17.934 12.3064 18.0001 12.511 18 12.721V16C18 16.5304 17.7893 17.0391 17.4142 17.4142C17.0391 17.7893 16.5304 18 16 18H15C6.716 18 0 11.284 0 3V2Z" fill="black"/>
</svg>
