<svg width="21" height="19" viewBox="0 0 21 19" fill="none" xmlns="http://www.w3.org/2000/svg">
<path d="M9.95279 3.77169C9.8174 3.90709 9.59788 3.9071 9.46248 3.7717C9.39747 3.70668 9.36094 3.6185 9.36094 3.52655V0.346701C9.36094 0.155223 9.51616 0 9.70764 0H12.4812C12.6727 0 12.8279 0.155223 12.8279 0.346701V3.52655C12.8279 3.6185 12.7914 3.70668 12.7264 3.7717C12.591 3.9071 12.3715 3.9071 12.2361 3.7717L12.033 3.56857C11.968 3.50354 11.8798 3.467 11.7878 3.467C11.6959 3.467 11.6077 3.50354 11.5427 3.56857L11.3396 3.77169C11.2042 3.90709 10.9847 3.90709 10.8493 3.7717L10.6462 3.56857C10.5812 3.50354 10.493 3.467 10.401 3.467C10.3091 3.467 10.2209 3.50354 10.1559 3.56857L9.95279 3.77169ZM13.8681 7.62742C14.3053 7.62566 14.7328 7.74235 15.1063 7.96243C15.2566 8.05104 15.4514 8.04112 15.5748 7.91771L16.8868 6.60566C16.9518 6.54064 16.9884 6.45245 16.9884 6.3605V1.0401C16.9867 0.466365 16.522 0.00167457 15.9483 0H13.8681C13.6766 0 13.5214 0.155223 13.5214 0.346701V3.81371C13.5214 3.90566 13.4848 3.99384 13.4198 4.05883L12.7264 4.75223C12.6614 4.81726 12.5732 4.8538 12.4812 4.8538C12.3893 4.8538 12.3011 4.81726 12.2361 4.75223L12.033 4.54912C11.8976 4.41373 11.6781 4.41373 11.5427 4.54912L11.3396 4.75225C11.2746 4.81729 11.1864 4.85382 11.0944 4.85382C11.0025 4.85382 10.9143 4.81729 10.8493 4.75225L10.6462 4.54913C10.5108 4.41373 10.2913 4.41373 10.1559 4.54913L9.95276 4.75225C9.88776 4.81729 9.79958 4.85382 9.70763 4.85382C9.61568 4.85382 9.5275 4.81729 9.4625 4.75225L8.7691 4.05885C8.70405 3.99385 8.66752 3.90566 8.66754 3.81371V0.346701C8.66754 0.155223 8.51231 0 8.32084 0H6.24063C5.66689 0.00167457 5.2022 0.466365 5.20053 1.0401V7.36519C5.20053 7.60173 5.43277 7.7691 5.66418 7.72009C5.96716 7.65593 6.27669 7.62476 6.58733 7.62742H13.8681ZM2.32533 10.1559C2.26033 10.0909 2.17215 10.0543 2.08021 10.0543C1.98826 10.0543 1.90008 10.0909 1.83508 10.1559L0.101573 11.8894C0.0365388 11.9544 0 12.0426 0 12.1345C0 12.2265 0.0365388 12.3147 0.101573 12.3797L5.64879 17.9269C5.71379 17.9919 5.80197 18.0285 5.89392 18.0285C5.98587 18.0285 6.07405 17.9919 6.13905 17.9269L7.87255 16.1934C7.93759 16.1284 7.97412 16.0402 7.97412 15.9483C7.97412 15.8563 7.93759 15.7681 7.87255 15.7031L2.32533 10.1559ZM20.386 6.47637C20.0881 6.16514 19.6762 5.98864 19.2454 5.98753C18.7699 5.98246 18.312 6.16712 17.973 6.50064L16.0433 8.42718C15.9227 8.54764 15.9101 8.73682 15.9926 8.88602C16.3793 9.58533 16.3989 10.4384 16.0293 11.1613C15.6145 11.9727 14.7794 12.4827 13.8681 12.4812H10.0543C9.86286 12.4812 9.70764 12.326 9.70764 12.1345C9.70764 11.9431 9.86286 11.7878 10.0543 11.7878H13.8681C14.8254 11.7878 15.6016 11.0117 15.6016 10.0543C15.6016 9.09694 14.8254 8.32082 13.8681 8.32082H6.58733C5.05838 8.32082 4.26443 9.1113 3.56756 9.80817L3.50762 9.86811C3.37223 10.0035 3.37223 10.223 3.50762 10.3584L7.72638 14.5772C7.84707 14.6979 8.03631 14.7071 8.19494 14.6441C8.34419 14.5848 8.50496 14.5563 8.66754 14.5614H14.5615C15.74 14.5633 16.835 13.9528 17.4529 12.9493C18.8987 10.8587 19.9145 9.3956 20.3895 8.71953C20.9373 7.93945 20.9373 7.0623 20.386 6.47637Z" fill="currentColor"/>
</svg>
