<svg width="19" height="18" viewBox="0 0 19 18" fill="none" xmlns="http://www.w3.org/2000/svg">
<path d="M7.23044 5.03678e-05C6.04894 0.00517211 4.98954 0.341561 4.06255 1.00834C0.562323 3.52671 0.0554239 10.0867 0.000273651 12.7899C-0.0119317 13.3907 0.385272 13.9327 0.967062 14.1081L5.2642 15.3972C6.38528 16.7294 7.86297 17.5479 9.48628 17.5479C11.1096 17.5479 12.5868 16.7294 13.7084 15.3972L18.0064 14.1081C18.5877 13.9332 18.9845 13.3916 18.9723 12.7908C18.9167 10.0871 18.4102 3.52672 14.91 1.00834C13.4268 -0.0580474 11.6028 -0.279091 9.48628 0.348808C8.69191 0.113176 7.93935 -0.00302358 7.23044 5.03678e-05ZM4.18793 7.60281H14.7846C14.8705 8.11363 14.9109 8.64253 14.9109 9.18499C14.9109 9.41409 14.9001 9.64006 14.8853 9.86395C14.6748 11.6544 13.137 13.0274 11.2927 13.0274C11.2674 13.0274 11.2421 13.0266 11.2168 13.0265C11.0249 12.4851 10.5128 12.1232 9.93834 12.1233C9.18936 12.1233 8.58219 12.7305 8.58219 13.4795C8.58219 14.2285 9.18936 14.8356 9.93834 14.8356C10.5129 14.8351 11.0248 14.4725 11.2159 13.9306C11.2415 13.9307 11.2671 13.9315 11.2927 13.9315C12.3919 13.9315 13.4057 13.5335 14.1949 12.8756C13.2596 15.1231 11.5018 16.6438 9.48628 16.6438C6.4937 16.6438 4.06167 13.2987 4.06167 9.18499C4.06167 8.64253 4.10204 8.11363 4.18793 7.60281Z" fill="currentColor"/>
</svg>
