<svg viewBox="0 0 52 52" fill="none" xmlns="http://www.w3.org/2000/svg">
<path d="M51.8526 7.49825C51.2809 3.27128 47.6949 0 43.3091 0H8.66182C4.27605 0 0.690058 3.27128 0.118378 7.49825C0.0404215 7.8736 0 8.26338 0 8.66182V17.3236V43.3091C0 48.0933 3.87761 51.9709 8.66182 51.9709H43.3091C48.0933 51.9709 51.9709 48.0933 51.9709 43.3091V17.3236V8.66182C51.9709 8.26338 51.9305 7.8736 51.8526 7.49825Z" fill="url(#paint0_linear_10_13)"/>
<path d="M43.3091 1.44364C46.8807 1.44364 49.9412 4.1288 50.4378 7.78698C50.4984 8.07282 50.5273 8.36732 50.5273 8.66182V17.3236V43.3091C50.5273 47.2907 47.2907 50.5273 43.3091 50.5273H8.66182C4.68027 50.5273 1.44364 47.2907 1.44364 43.3091V17.3236V8.66182C1.44364 8.36732 1.47251 8.07282 1.54758 7.6917C2.02975 4.1288 5.09027 1.44364 8.66182 1.44364H43.3091ZM43.3091 0H8.66182C4.27605 0 0.690058 3.27128 0.118378 7.49825C0.0404215 7.8736 0 8.26338 0 8.66182V17.3236V43.3091C0 48.0933 3.87761 51.9709 8.66182 51.9709H43.3091C48.0933 51.9709 51.9709 48.0933 51.9709 43.3091V17.3236V8.66182C51.9709 8.26338 51.9305 7.8736 51.8526 7.49825C51.2809 3.27128 47.6949 0 43.3091 0Z" fill="url(#paint1_linear_10_13)"/>
<path d="M43.3092 23.0981C42.7721 23.0981 32.2971 23.0981 31.7601 23.0981C30.1663 23.0981 28.8728 24.3916 28.8728 25.9854C28.8728 27.5792 30.1663 28.8727 31.7601 28.8727C32.2971 28.8727 42.7721 28.8727 43.3092 28.8727C44.903 28.8727 46.1965 27.5792 46.1965 25.9854C46.1965 24.3916 44.903 23.0981 43.3092 23.0981Z" fill="url(#paint2_linear_10_13)"/>
<path d="M43.3092 34.6472C42.7721 34.6472 32.2971 34.6472 31.7601 34.6472C30.1663 34.6472 28.8728 35.9407 28.8728 37.5345C28.8728 39.1283 30.1663 40.4218 31.7601 40.4218C32.2971 40.4218 42.7721 40.4218 43.3092 40.4218C44.903 40.4218 46.1965 39.1283 46.1965 37.5345C46.1965 35.9407 44.903 34.6472 43.3092 34.6472Z" fill="url(#paint3_linear_10_13)"/>
<path d="M20.2109 40.4218H8.66181C7.06804 40.4218 5.77454 39.1283 5.77454 37.5345V25.9854C5.77454 24.3916 7.06804 23.0981 8.66181 23.0981H20.2109C21.8047 23.0981 23.0982 24.3916 23.0982 25.9854V37.5345C23.0982 39.1283 21.8047 40.4218 20.2109 40.4218Z" fill="url(#paint4_linear_10_13)"/>
<path d="M43.3091 0H8.66182C3.87761 0 0 3.87761 0 8.66182V17.3236H51.9709V8.66182C51.9709 3.87761 48.0933 0 43.3091 0ZM8.66182 11.5491C7.06805 11.5491 5.77455 10.2556 5.77455 8.66182C5.77455 7.06805 7.06805 5.77455 8.66182 5.77455C10.2556 5.77455 11.5491 7.06805 11.5491 8.66182C11.5491 10.2556 10.2556 11.5491 8.66182 11.5491ZM17.3236 11.5491C15.7299 11.5491 14.4364 10.2556 14.4364 8.66182C14.4364 7.06805 15.7299 5.77455 17.3236 5.77455C18.9174 5.77455 20.2109 7.06805 20.2109 8.66182C20.2109 10.2556 18.9174 11.5491 17.3236 11.5491ZM43.3091 11.5491C42.7721 11.5491 29.4098 11.5491 28.8727 11.5491C27.279 11.5491 25.9855 10.2556 25.9855 8.66182C25.9855 7.06805 27.279 5.77455 28.8727 5.77455C29.4098 5.77455 42.7721 5.77455 43.3091 5.77455C44.9029 5.77455 46.1964 7.06805 46.1964 8.66182C46.1964 10.2556 44.9029 11.5491 43.3091 11.5491Z" fill="url(#paint5_linear_10_13)"/>
<defs>
<linearGradient id="paint0_linear_10_13" x1="2.54369" y1="2.55813" x2="49.4273" y2="49.4417" gradientUnits="userSpaceOnUse">
<stop stop-color="#9E99FF" stop-opacity="0.61176"/>
<stop offset="1" stop-color="#8480FF" stop-opacity="0.37"/>
</linearGradient>
<linearGradient id="paint1_linear_10_13" x1="2.54369" y1="2.55813" x2="49.4273" y2="49.4417" gradientUnits="userSpaceOnUse">
<stop stop-color="#9E99FF" stop-opacity="0.61176"/>
<stop offset="0.493" stop-color="#ACA7FF" stop-opacity="0"/>
<stop offset="0.997" stop-color="#9E99FF" stop-opacity="0.30196"/>
</linearGradient>
<linearGradient id="paint2_linear_10_13" x1="32.606" y1="21.0568" x2="42.4632" y2="30.914" gradientUnits="userSpaceOnUse">
<stop stop-color="#E9E8FF" stop-opacity="0.70196"/>
<stop offset="0.519" stop-color="#BEBBFF" stop-opacity="0.45098"/>
<stop offset="1" stop-color="#9E99FF" stop-opacity="0.54902"/>
</linearGradient>
<linearGradient id="paint3_linear_10_13" x1="32.606" y1="32.6059" x2="42.4632" y2="42.4631" gradientUnits="userSpaceOnUse">
<stop stop-color="#E9E8FF" stop-opacity="0.70196"/>
<stop offset="0.519" stop-color="#BEBBFF" stop-opacity="0.45098"/>
<stop offset="1" stop-color="#9E99FF" stop-opacity="0.54902"/>
</linearGradient>
<linearGradient id="paint4_linear_10_13" x1="6.62051" y1="23.9441" x2="22.2522" y2="39.5758" gradientUnits="userSpaceOnUse">
<stop stop-color="#E9E8FF"/>
<stop offset="0.519" stop-color="#CECCFF" stop-opacity="0.45098"/>
<stop offset="1" stop-color="#E9E8FF" stop-opacity="0.70196"/>
</linearGradient>
<linearGradient id="paint5_linear_10_13" x1="9.92934" y1="-4.8564" x2="42.0416" y2="27.253" gradientUnits="userSpaceOnUse">
<stop stop-color="#E9E8FF" stop-opacity="0.70196"/>
<stop offset="0.519" stop-color="#DCDBFF" stop-opacity="0.45098"/>
<stop offset="1" stop-color="#E9E8FF"/>
</linearGradient>
</defs>
</svg>
