<svg width="22" height="16" viewBox="0 0 22 16" fill="none" xmlns="http://www.w3.org/2000/svg">
<path fill-rule="evenodd" clip-rule="evenodd" d="M10.75 0C9.559 0 8.17 0.028 6.816 0.066L6.761 0.0679998C5.383 0.107 4.271 0.138 3.395 0.283C2.482 0.434 1.724 0.723 1.118 1.346C0.51 1.971 0.245 2.744 0.12 3.669C7.45058e-09 4.559 0 5.687 0 7.089V8.613C0 10.013 7.45058e-09 11.141 0.12 12.032C0.244 12.957 0.51 13.73 1.118 14.355C1.724 14.979 2.482 15.267 3.395 15.418C4.271 15.563 5.383 15.594 6.761 15.633L6.816 15.635C8.171 15.673 9.559 15.701 10.75 15.701C11.941 15.701 13.33 15.673 14.684 15.635L14.739 15.633C16.117 15.594 17.229 15.563 18.105 15.418C19.018 15.267 19.776 14.978 20.382 14.355C20.99 13.73 21.256 12.957 21.38 12.032C21.5 11.142 21.5 10.014 21.5 8.612V7.088C21.5 5.687 21.5 4.559 21.38 3.669C21.256 2.744 20.99 1.971 20.382 1.346C19.776 0.722 19.018 0.434 18.105 0.283C17.229 0.138 16.117 0.107 14.738 0.0679998L14.684 0.066C13.373 0.0262088 12.0616 0.00420675 10.75 0ZM9.622 10.501C9.50796 10.5661 9.3788 10.6002 9.24747 10.5998C9.11613 10.5993 8.98721 10.5644 8.87361 10.4985C8.76001 10.4326 8.66571 10.338 8.60014 10.2242C8.53457 10.1104 8.50004 9.98134 8.5 9.85V5.85C8.50004 5.71866 8.53457 5.58964 8.60014 5.47583C8.66571 5.36203 8.76001 5.26744 8.87361 5.20153C8.98721 5.13562 9.11613 5.10069 9.24747 5.10025C9.3788 5.0998 9.50796 5.13386 9.622 5.199L13.122 7.199C13.2367 7.26462 13.332 7.35939 13.3984 7.47371C13.4647 7.58803 13.4996 7.71784 13.4996 7.85C13.4996 7.98216 13.4647 8.11197 13.3984 8.22629C13.332 8.34061 13.2367 8.43538 13.122 8.501L9.622 10.501Z" fill="black"/>
</svg>
